<svg width="65" height="64" viewBox="0 0 65 64" fill="none" xmlns="http://www.w3.org/2000/svg">
<g opacity="0.7">
<path fill-rule="evenodd" clip-rule="evenodd" d="M64.3332 33.1588H61.0041C59.9995 33.1588 59.2697 33.3987 58.7528 33.7717V33.1588H53.8286C53.0412 33.1588 52.1169 33.3535 51.6797 33.7717V33.1588H42.8864V33.7717C42.1866 33.2684 41.0058 33.1588 40.4608 33.1588H34.6606V33.7717C34.107 33.2371 32.8757 33.1588 32.1253 33.1588H25.634L24.1485 34.7616L22.7573 33.1588H13.0605V43.6307H22.5748L24.1054 42.0026L25.5473 43.6307L31.4119 43.6359V41.1725H31.9884C32.7666 41.1845 33.6843 41.1533 34.494 40.8043V43.6305H39.3312V40.9012H39.5646C39.8624 40.9012 39.8917 40.9134 39.8917 41.2101V43.6303H54.5863C55.5193 43.6303 56.4945 43.3922 57.0345 42.9601V43.6303H61.6956C62.6655 43.6303 63.6128 43.4947 64.3335 43.1475C64.3335 -14.1473 64.3332 57.1479 64.3332 33.1588Z" fill="#006FCF"/>
<path fill-rule="evenodd" clip-rule="evenodd" d="M3.40575 30.7146L4.09877 29.0481H5.65027L6.34147 30.7146H12.3888V29.4405L12.9286 30.7201H16.0679L16.6077 29.4215V30.7146H31.6365L31.6295 27.979H31.9203C32.1239 27.986 32.1833 28.0048 32.1833 28.3399V30.7146H39.9563V30.0778C40.5833 30.4127 41.5584 30.7146 42.8416 30.7146H46.1117L46.8115 29.0481H48.363L49.0474 30.7146H55.349V29.1316L56.3033 30.7146H61.353V20.25H56.3555V21.4859L55.6556 20.25H50.5276V21.4859L49.885 20.25H42.9583C41.7988 20.25 40.7796 20.4114 39.9563 20.861V20.25H35.1763V20.861C34.6524 20.3976 33.9385 20.25 33.1447 20.25H15.6814L14.5096 22.9528L13.3063 20.25H7.8058V21.4859L7.20154 20.25H2.51049L0.332031 25.2255V30.7146H3.40575Z" fill="#006FCF"/>
<path fill-rule="evenodd" clip-rule="evenodd" d="M32.0648 39.6283C33.6372 39.6283 35.1973 39.1979 35.1973 37.1131C35.1973 35.0346 33.5934 34.6406 32.1658 34.6406H26.4179L24.1298 37.1006L21.9166 34.6406H14.6816V42.1456H21.807L24.1089 39.6611L26.3239 42.1456H29.8203V39.6283H32.0648ZM29.8203 38.1041H32.145C32.8362 38.1041 33.2661 37.7622 33.2661 37.1131C33.2661 36.4568 32.8153 36.1929 32.1658 36.1929H29.8203V38.1041ZM20.8963 40.5816H16.4735V39.0884H20.4228V37.5571H16.4735V36.1927H20.9834L22.951 38.3798L20.8963 40.5816ZM28.0286 41.4631L25.2668 38.406L28.0286 35.4461V41.4631Z" fill="white"/>
<path fill-rule="evenodd" clip-rule="evenodd" d="M42.8904 39.2879C42.7369 39.0693 42.4096 38.8052 42.0092 38.6579C42.4827 38.4705 43.284 37.8592 43.2842 36.6614C43.2842 35.8052 42.9272 35.3368 42.3595 34.9948C41.769 34.6807 41.1058 34.6406 40.1951 34.6406H36.042V42.1456H37.8495V39.4045H39.772C40.4282 39.4045 40.8288 39.4687 41.0917 39.7376C41.3927 40.0517 41.3874 40.6248 41.3834 41.0654C41.3829 41.1143 41.3825 41.1615 41.3825 41.2066V42.1456H43.1884V40.6578C43.1812 39.9963 43.1444 39.6543 42.8904 39.2879ZM40.9228 37.7239C40.6822 37.8663 40.3846 37.8785 40.0346 37.8785H37.8493V36.1929H40.0643C40.3846 36.1929 40.7051 36.1997 40.9228 36.3285C41.1559 36.45 41.2953 36.6825 41.2953 37.0036C41.2953 37.3247 41.1559 37.5834 40.9228 37.7239Z" fill="white"/>
<path d="M57.1547 38.1874C57.5049 38.5488 57.6927 39.005 57.6927 39.7774C57.6927 41.3919 56.681 42.1456 54.8668 42.1456H51.3632V40.5363H54.8527C55.1939 40.5363 55.4359 40.4912 55.5875 40.3505C55.7112 40.2344 55.8 40.0658 55.8 39.8609C55.8 39.6423 55.704 39.4687 55.5805 39.3646C55.4429 39.2501 55.2532 39.1981 54.9399 39.1981C54.8298 39.1943 54.7178 39.1913 54.6047 39.1882C52.9908 39.1445 51.1509 39.0946 51.1509 36.8752C51.1509 35.7867 51.8369 34.6409 53.7228 34.6409H57.329V36.2382H54.0292C53.7021 36.2382 53.4894 36.2504 53.3085 36.3737C53.1115 36.4952 53.0384 36.6756 53.0384 36.9137C53.0384 37.1968 53.2057 37.3894 53.432 37.4727C53.6218 37.5385 53.8256 37.5578 54.132 37.5578L55.1004 37.5838C56.0769 37.6076 56.7472 37.7759 57.1547 38.1874Z" fill="white"/>
<path d="M64.3302 36.2377H61.0517C60.7244 36.2377 60.5069 36.2499 60.3237 36.3732C60.134 36.4948 60.0609 36.6751 60.0609 36.9132C60.0609 37.1963 60.2211 37.3889 60.4543 37.4722C60.644 37.5381 60.8479 37.5573 61.1475 37.5573L62.1224 37.5833C63.1062 37.6075 63.7629 37.7761 64.1633 38.1874C64.2249 38.2357 64.2657 38.289 64.307 38.3431L64.3183 38.3577L64.3254 38.367L64.3302 38.3732V41.1856C63.8932 41.8226 63.0418 42.1456 61.8891 42.1456H58.4152V40.5363H61.875C62.2182 40.5363 62.4584 40.4912 62.603 40.3505C62.7283 40.2344 62.8157 40.0658 62.8157 39.861C62.8157 39.6423 62.7283 39.4688 62.596 39.3647C62.4654 39.2501 62.2754 39.1981 61.9622 39.1981C61.8517 39.1944 61.7394 39.1913 61.6261 39.1883C60.0065 39.1445 58.1659 39.0948 58.1659 36.8752C58.1659 35.7867 58.8592 34.6409 60.7469 34.6409H64.33L64.3302 36.2377Z" fill="white"/>
<path d="M44.2816 34.6406H50.2854V36.1927H46.0731V37.5571H50.1826V39.0883H46.0731V40.5815L50.2854 40.5883V42.1456H44.2816V34.6406Z" fill="white"/>
<path fill-rule="evenodd" clip-rule="evenodd" d="M6.10146 25.994L4.87025 23.0029L3.64607 25.994H6.10146ZM33.225 24.803C32.9778 24.9526 32.6854 24.9576 32.3351 24.9576H30.1499V23.291H32.3649C32.6784 23.291 33.0055 23.3051 33.2179 23.4264C33.4513 23.5357 33.5956 23.7683 33.5956 24.0897C33.5956 24.4176 33.4583 24.6815 33.225 24.803ZM48.8144 25.994L47.5696 23.0029L46.3316 25.994H48.8144ZM19.7547 29.2316H17.9106L17.9038 23.3552L15.2954 29.2316H13.716L11.1008 23.35V29.2316H7.44208L6.75088 27.5581H3.00548L2.30725 29.2316H0.353516L3.57478 21.7285H6.24741L9.30683 28.8324V21.7285H12.2428L14.5969 26.8185L16.7595 21.7285H19.7544V29.2316H19.7547ZM27.1045 29.2316H21.0953V21.7285H27.1045V23.291H22.8943V24.6434H27.0035V26.1814H22.8943V27.6798H27.1045V29.2316ZM35.5773 23.7492C35.5773 24.9455 34.7764 25.5636 34.3097 25.7492C34.7034 25.8985 35.0395 26.1624 35.1996 26.381C35.4536 26.7542 35.4974 27.0876 35.4974 27.7577V29.2316H33.683L33.6762 28.2854C33.6762 27.8339 33.7196 27.1847 33.3922 26.8237C33.1294 26.5598 32.7287 26.5025 32.0811 26.5025H30.1501V29.2316H28.3514V21.7285H32.4888C33.4081 21.7285 34.0855 21.7527 34.667 22.0879C35.2361 22.4231 35.5773 22.9123 35.5773 23.7492ZM38.456 29.2316H36.6206V21.7285H38.456V29.2316ZM59.7499 29.2316H57.2007L53.791 23.6001V29.2316H50.1276L49.4275 27.5581H45.6908L45.0116 29.2316H42.9067C42.0323 29.2316 40.9253 29.0388 40.2983 28.4018C39.6661 27.7647 39.3372 26.9018 39.3372 25.5373C39.3372 24.4246 39.5338 23.4073 40.3069 22.6034C40.8885 22.0046 41.7992 21.7285 43.0388 21.7285H44.7803V23.3362H43.0754C42.4189 23.3362 42.0482 23.4335 41.6911 23.7807C41.3845 24.0966 41.1741 24.6939 41.1741 25.4803C41.1741 26.2842 41.3343 26.8637 41.6687 27.2424C41.9456 27.5393 42.4488 27.6294 42.9224 27.6294H43.7302L46.2655 21.7287H48.9608L52.0064 28.8256V21.7287H54.7453L57.9074 26.9543V21.7287H59.7499V29.2316Z" fill="white"/>
</g>
</svg>
