<svg width="40" height="40" viewBox="0 0 40 40" fill="none" xmlns="http://www.w3.org/2000/svg">
<g opacity="0.7">
<path fill-rule="evenodd" clip-rule="evenodd" d="M40.0005 20.7245H37.9198C37.2919 20.7245 36.8358 20.8744 36.5127 21.1075V20.7245H33.4351C32.943 20.7245 32.3653 20.8462 32.092 21.1075V20.7245H26.5962V21.1075C26.1588 20.793 25.4208 20.7245 25.0802 20.7245H21.4551V21.1075C21.1091 20.7735 20.3396 20.7245 19.8706 20.7245H15.8135L14.8851 21.7262L14.0155 20.7245H7.95508V27.2694H13.9015L14.8581 26.2519L15.7593 27.2694L19.4247 27.2727V25.7331H19.785C20.2713 25.7406 20.8449 25.721 21.351 25.5029V27.2693H24.3743V25.5635H24.5201C24.7062 25.5635 24.7245 25.5711 24.7245 25.7565V27.2692H33.9087C34.4918 27.2692 35.1013 27.1204 35.4388 26.8503V27.2692H38.352C38.9582 27.2692 39.5502 27.1844 40.0006 26.9675C40.0006 -8.84181 40.0005 35.7177 40.0005 20.7245Z" fill="#006FCF"/>
<path fill-rule="evenodd" clip-rule="evenodd" d="M1.92108 19.1966L2.35421 18.155H3.3239L3.7559 19.1966H7.53549V18.4003L7.87285 19.2H9.83493L10.1723 18.3884V19.1966H19.5653L19.5609 17.4869H19.7426C19.8699 17.4912 19.9071 17.503 19.9071 17.7125V19.1966H24.7652V18.7986C25.157 19.008 25.7665 19.1966 26.5685 19.1966H28.6123L29.0497 18.155H30.0194L30.4471 19.1966H34.3856V18.2072L34.982 19.1966H38.1381V12.6562H35.0146V13.4287L34.5773 12.6562H31.3722V13.4287L30.9706 12.6562H26.6414C25.9167 12.6562 25.2797 12.7571 24.7652 13.0382V12.6562H21.7776V13.0382C21.4502 12.7485 21.004 12.6562 20.5079 12.6562H9.59333L8.86099 14.3455L8.10893 12.6562H4.67111V13.4287L4.29345 12.6562H1.36154L0 15.7659V19.1966H1.92108Z" fill="#006FCF"/>
<path fill-rule="evenodd" clip-rule="evenodd" d="M19.8332 24.7677C20.816 24.7677 21.7911 24.4987 21.7911 23.1957C21.7911 21.8966 20.7886 21.6504 19.8964 21.6504H16.3039L14.8739 23.1879L13.4906 21.6504H8.96875V26.341H13.4221L14.8608 24.7882L16.2452 26.341H18.4304V24.7677H19.8332ZM18.4304 23.8151H19.8833C20.3153 23.8151 20.584 23.6014 20.584 23.1957C20.584 22.7855 20.3023 22.6206 19.8964 22.6206H18.4304V23.8151ZM12.8529 25.3635H10.0887V24.4302H12.557V23.4732H10.0887V22.6204H12.9074L14.1371 23.9874L12.8529 25.3635ZM17.3106 25.9144L15.5845 24.0038L17.3106 22.1538V25.9144Z" fill="white"/>
<path fill-rule="evenodd" clip-rule="evenodd" d="M26.5992 24.555C26.5033 24.4183 26.2987 24.2533 26.0485 24.1612C26.3444 24.0441 26.8452 23.662 26.8454 22.9133C26.8454 22.3783 26.6222 22.0855 26.2674 21.8718C25.8984 21.6754 25.4838 21.6504 24.9146 21.6504H22.319V26.341H23.4487V24.6278H24.6502C25.0603 24.6278 25.3107 24.668 25.475 24.836C25.6631 25.0323 25.6599 25.3905 25.6573 25.6659C25.657 25.6964 25.6568 25.726 25.6568 25.7541V26.341H26.7855V25.4111C26.781 24.9977 26.758 24.784 26.5992 24.555ZM25.3695 23.5775C25.2191 23.6664 25.0331 23.6741 24.8143 23.6741H23.4485V22.6206H24.8329C25.0331 22.6206 25.2334 22.6248 25.3695 22.7053C25.5152 22.7813 25.6023 22.9265 25.6023 23.1272C25.6023 23.328 25.5152 23.4896 25.3695 23.5775Z" fill="white"/>
<path d="M35.5144 23.8671C35.7333 24.093 35.8506 24.3781 35.8506 24.8609C35.8506 25.87 35.2183 26.341 34.0845 26.341H31.8947V25.3352H34.0757C34.2889 25.3352 34.4402 25.307 34.5349 25.219C34.6122 25.1465 34.6677 25.0411 34.6677 24.9131C34.6677 24.7765 34.6077 24.668 34.5305 24.6029C34.4446 24.5313 34.326 24.4988 34.1302 24.4988C34.0613 24.4965 33.9913 24.4946 33.9207 24.4926C32.912 24.4653 31.7621 24.4341 31.7621 23.047C31.7621 22.3667 32.1908 21.6505 33.3695 21.6505H35.6234V22.6488H33.561C33.3565 22.6488 33.2236 22.6565 33.1105 22.7336C32.9874 22.8095 32.9417 22.9223 32.9417 23.0711C32.9417 23.248 33.0463 23.3684 33.1877 23.4204C33.3063 23.4616 33.4337 23.4736 33.6253 23.4736L34.2305 23.4899C34.8408 23.5047 35.2597 23.61 35.5144 23.8671Z" fill="white"/>
<path d="M39.9991 22.6486H37.9501C37.7455 22.6486 37.6096 22.6562 37.4951 22.7333C37.3765 22.8092 37.3308 22.922 37.3308 23.0708C37.3308 23.2477 37.4309 23.3681 37.5766 23.4201C37.6952 23.4613 37.8226 23.4733 38.0099 23.4733L38.6193 23.4896C39.2341 23.5047 39.6446 23.6101 39.8948 23.8671C39.9333 23.8973 39.9588 23.9306 39.9846 23.9644L39.9916 23.9736L39.9961 23.9794L39.9991 23.9832V25.741C39.726 26.1391 39.1938 26.341 38.4734 26.341H36.3022V25.3352H38.4646C38.6791 25.3352 38.8292 25.307 38.9196 25.219C38.9979 25.1465 39.0525 25.0411 39.0525 24.9131C39.0525 24.7765 38.9979 24.668 38.9152 24.6029C38.8336 24.5313 38.7149 24.4988 38.5191 24.4988C38.45 24.4965 38.3799 24.4946 38.309 24.4927C37.2968 24.4653 36.1464 24.4342 36.1464 23.047C36.1464 22.3667 36.5797 21.6505 37.7595 21.6505H39.999L39.9991 22.6486Z" fill="white"/>
<path d="M27.4688 21.6504H31.2211V22.6204H28.5884V23.4732H31.1568V24.4302H28.5884V25.3634L31.2211 25.3677V26.341H27.4688V21.6504Z" fill="white"/>
<path fill-rule="evenodd" clip-rule="evenodd" d="M3.60614 16.245L2.83663 14.3756L2.07152 16.245H3.60614ZM20.5583 15.5007C20.4038 15.5942 20.2211 15.5973 20.0022 15.5973H18.6364V14.5557H20.0208C20.2167 14.5557 20.4211 14.5644 20.5539 14.6403C20.6998 14.7086 20.79 14.854 20.79 15.0548C20.79 15.2598 20.7042 15.4247 20.5583 15.5007ZM30.3018 16.245L29.5237 14.3756L28.75 16.245H30.3018ZM12.1394 18.2686H10.9868L10.9826 14.5958L9.35234 18.2686H8.3652L6.7307 14.5926V18.2686H4.44402L4.01203 17.2226H1.67115L1.23476 18.2686H0.0136719L2.02697 13.5791H3.69736L5.6095 18.019V13.5791H7.44446L8.9158 16.7603L10.2674 13.5791H12.1393V18.2686H12.1394ZM16.7331 18.2686H12.9773V13.5791H16.7331V14.5556H14.1016V15.4009H16.6699V16.3622H14.1016V17.2987H16.7331V18.2686ZM22.0285 14.8421C22.0285 15.5897 21.528 15.976 21.2363 16.092C21.4823 16.1854 21.6924 16.3503 21.7925 16.4869C21.9512 16.7202 21.9786 16.9285 21.9786 17.3473V18.2686H20.8446L20.8404 17.6772C20.8404 17.395 20.8675 16.9892 20.6629 16.7636C20.4986 16.5987 20.2482 16.5629 19.8434 16.5629H18.6365V18.2686H17.5123V13.5791H20.0982C20.6728 13.5791 21.0961 13.5942 21.4596 13.8037C21.8153 14.0132 22.0285 14.319 22.0285 14.8421ZM23.8277 18.2686H22.6806V13.5791H23.8277V18.2686ZM37.1364 18.2686H35.5432L33.4121 14.7488V18.2686H31.1225L30.6849 17.2226H28.3495L27.925 18.2686H26.6094C26.0629 18.2686 25.371 18.148 24.9792 17.7499C24.5841 17.3517 24.3785 16.8124 24.3785 15.9596C24.3785 15.2641 24.5013 14.6283 24.9846 14.1259C25.348 13.7517 25.9172 13.5791 26.692 13.5791H27.7804V14.5839H26.7148C26.3045 14.5839 26.0729 14.6447 25.8497 14.8617C25.658 15.0592 25.5265 15.4324 25.5265 15.924C25.5265 16.4264 25.6267 16.7886 25.8356 17.0253C26.0087 17.2108 26.3233 17.2671 26.6192 17.2671H27.1241L28.7087 13.5792H30.3933L32.2967 18.0148V13.5792H34.0086L35.9848 16.8452V13.5792H37.1364V18.2686Z" fill="white"/>
</g>
</svg>
