<svg width="36" height="24" viewBox="0 0 36 24" fill="none" xmlns="http://www.w3.org/2000/svg">
<g clip-path="url(#clip0_2062_24349)">
<path d="M0 0H36V24H0V0Z" fill="#055E1C"/>
<path d="M12.9057 14.348C12.9057 15.2125 13.5899 15.9132 14.434 15.9132H19.019C19.019 16.6335 19.5892 17.2176 20.2926 17.2176H21.8209C22.5243 17.2176 23.0946 16.6336 23.0946 15.9132V14.348H12.9057ZM23.2217 6.78271V10.4349C23.2217 11.0103 22.7647 11.4783 22.2028 11.4783V13.0436C23.6074 13.0436 24.7499 11.8733 24.7499 10.4349V6.78271H23.2217ZM12.2689 10.435C12.2689 11.0103 11.8119 11.4784 11.25 11.4784V13.0436C12.6546 13.0436 13.7971 11.8734 13.7971 10.435V6.78279H12.2688V10.435H12.2689Z" fill="white"/>
<path d="M20.9293 6.78223H22.4576V10.4344H20.9293V6.78223ZM18.6368 8.86946C18.6368 9.01332 18.5226 9.13031 18.3821 9.13031C18.2416 9.13031 18.1273 9.01332 18.1273 8.86946V6.78244H16.599V8.86946C16.599 9.01332 16.4848 9.13031 16.3443 9.13031C16.2038 9.13031 16.0895 9.01332 16.0895 8.86946V6.78244H14.5612V8.86946C14.5612 9.87633 15.3611 10.6955 16.3442 10.6955C16.7228 10.6955 17.074 10.5737 17.3631 10.3667C17.6521 10.5737 18.0034 10.6955 18.382 10.6955C18.4582 10.6955 18.5332 10.6901 18.607 10.6804C18.4987 11.1374 18.0969 11.4781 17.6178 11.4781V13.0433C19.0224 13.0433 20.165 11.8731 20.165 10.4347V6.78244H18.6367L18.6368 8.86946Z" fill="white"/>
<path d="M14.5612 11.478H16.8535V13.0433H14.5612V11.478Z" fill="white"/>
</g>
<defs>
<clipPath id="clip0_2062_24349">
<rect width="36" height="24" fill="white"/>
</clipPath>
</defs>
</svg>
