<svg xmlns="http://www.w3.org/2000/svg" shape-rendering="geometricPrecision" text-rendering="geometricPrecision" image-rendering="optimizeQuality" fill-rule="evenodd" clip-rule="evenodd" viewBox="0 0 512 356.18"><g fill-rule="nonzero"><path fill="#00732F" d="M28.137 0H483.86C499.337 0 512 12.663 512 28.14v299.9c0 15.477-12.663 28.14-28.14 28.14H28.137C12.663 356.18 0 343.517 0 328.04V28.14C0 12.663 12.663 0 28.137 0z"/><path fill="#fff" d="M512 118.726H0V328.04c0 15.477 12.663 28.14 28.137 28.14H483.86c15.477 0 28.14-12.663 28.14-28.14V118.726z"/><path d="M512 237.454H0v90.586c0 15.477 12.663 28.14 28.137 28.14H483.86c15.477 0 28.14-12.663 28.14-28.14v-90.586z"/><path fill="red" d="M142.871 356.18V0H28.137C12.663 0 0 12.663 0 28.14v299.9c0 15.477 12.663 28.14 28.137 28.14h114.734z"/></g></svg>
