<svg width="140" height="140" viewBox="0 0 140 140" fill="none" xmlns="http://www.w3.org/2000/svg">
<path d="M130.319 56.2769C128.522 55.0704 126.899 53.623 125.495 51.9751C125.599 49.6808 126.061 47.4168 126.862 45.2645C128.369 40.1634 130.246 33.8147 126.629 28.8469C122.986 23.8397 116.331 23.6716 110.985 23.5349C108.735 23.6248 106.485 23.3829 104.307 22.817C103.109 20.9381 102.194 18.8929 101.592 16.7474C99.8084 11.6669 97.5861 5.34351 91.6345 3.40941C85.8596 1.53249 80.6768 5.09847 76.1071 8.23433C74.2706 9.7006 72.2087 10.8597 70.0016 11.6667C67.7933 10.8606 65.7305 9.70141 63.8936 8.23433C59.3236 5.09572 54.1395 1.54098 48.3659 3.40941C42.4159 5.34351 40.1943 11.6637 38.4083 16.7454C37.8076 18.8802 36.903 20.9176 35.7224 22.795C33.5369 23.378 31.2757 23.6268 29.0157 23.5329C23.6695 23.6693 17.0145 23.8376 13.3715 28.8446C9.7548 33.8152 11.6313 40.1638 13.1382 45.2655C13.9305 47.4062 14.3958 49.6542 14.5182 51.9336C13.121 53.6048 11.4919 55.0674 9.68039 56.2771C5.36667 59.5669 0 63.6624 0 70C0 76.3377 5.36667 80.4332 9.68131 83.7232C11.4784 84.9297 13.1014 86.3771 14.5049 88.025C14.4007 90.3193 13.9394 92.5833 13.1378 94.7355C11.631 99.8367 9.75434 106.186 13.3711 111.153C17.014 116.16 23.669 116.329 29.0155 116.465C31.2645 116.376 33.5146 116.617 35.6932 117.183C36.8911 119.062 37.8057 121.107 38.4076 123.253C40.1936 128.334 42.4152 134.657 48.3666 136.592C49.4211 136.937 50.5237 137.113 51.6334 137.113C56.1124 137.113 60.2025 134.302 63.8941 131.767C65.7305 130.3 67.7925 129.141 69.9998 128.333C72.2082 129.14 74.2711 130.299 76.1082 131.766C80.678 134.904 85.8607 138.456 91.6357 136.591C97.5857 134.657 99.8073 128.336 101.593 123.255C102.194 121.12 103.099 119.082 104.279 117.205C106.465 116.622 108.726 116.373 110.986 116.467C116.332 116.331 122.987 116.162 126.63 111.155C130.247 106.185 128.37 99.836 126.863 94.7346C126.071 92.5938 125.606 90.3459 125.483 88.0665C126.881 86.3953 128.51 84.9326 130.321 83.7229C134.633 80.4332 140 76.3377 140 70C140 63.6624 134.633 59.5669 130.319 56.2769ZM95.9995 59.5411L66.8327 88.7077C64.5555 90.9856 60.863 90.9863 58.5851 88.7091L58.5837 88.7077L44.0003 74.1243C41.6935 71.8754 41.6466 68.1821 43.8956 65.8753C46.1445 63.5685 49.8377 63.5216 52.1446 65.7706C52.1799 65.805 52.2148 65.8399 52.2493 65.8753L62.7082 76.3344L87.7505 51.2919C89.9994 48.9851 93.6927 48.9385 95.9995 51.1874C98.3063 53.4364 98.3529 57.1296 96.104 59.4364C96.0695 59.472 96.0346 59.5067 95.9995 59.5411Z" fill="#51A2FF"/>
</svg>
