<svg width="64" height="64" viewBox="0 0 64 64" fill="none" xmlns="http://www.w3.org/2000/svg">
<rect width="64" height="64" rx="32" fill="white"/>
<g opacity="0.95">
<path d="M50.642 50.6654H50.6673M50.642 50.6654C48.9815 52.312 45.9722 51.9019 43.8618 51.9019C41.2713 51.9019 40.0239 52.4086 38.1751 54.2574C36.6009 55.8317 34.4906 58.6653 32.0007 58.6654C29.5108 58.6653 27.4004 55.8317 25.8262 54.2574C23.9774 52.4086 22.73 51.9019 20.1395 51.9019C18.0291 51.9019 15.0198 52.312 13.3593 50.6654C11.6855 49.0056 12.0974 45.9838 12.0974 43.8598C12.0974 41.1758 11.5104 39.9416 9.59899 38.0303C6.75568 35.187 5.33403 33.7652 5.33398 31.9986C5.33401 30.2321 6.75565 28.8104 9.59893 25.9671C11.3052 24.2609 12.0974 22.5701 12.0974 20.1375C12.0974 18.0271 11.6873 15.0177 13.334 13.3572C14.9938 11.6835 18.0156 12.0954 20.1395 12.0954C22.5721 12.0954 24.2628 11.3032 25.9691 9.59702C28.8124 6.75369 30.234 5.33203 32.0006 5.33203C33.7673 5.33203 35.1889 6.75369 38.0322 9.59701C39.7381 11.3029 41.4285 12.0954 43.8618 12.0954C45.9722 12.0954 48.9816 11.6853 50.6421 13.332C52.3158 14.9918 51.9039 18.0136 51.9039 20.1375C51.9039 22.8216 52.491 24.0557 54.4024 25.9671C57.2457 28.8104 58.6673 30.2321 58.6673 31.9986C58.6673 33.7652 57.2456 35.187 54.4023 38.0303C52.4909 39.9416 51.9039 41.1758 51.9039 43.8598C51.9039 45.9838 52.3158 49.0056 50.642 50.6654Z" stroke="#FF6467" stroke-width="4"/>
<path d="M24 34.3797L28.8 38.6654L40 25.332" stroke="#FF6467" stroke-width="4" stroke-linecap="round" stroke-linejoin="round"/>
</g>
</svg>
