<svg width="16" height="16" viewBox="0 0 16 16" fill="none" xmlns="http://www.w3.org/2000/svg">
<g clip-path="url(#clip0_40000114_4873)">
<path d="M2.66602 9.33398H14.666" stroke="#2B7FFF" stroke-linecap="round" stroke-linejoin="round"/>
<path d="M3.33398 14.6673L3.95436 14.0469C4.30687 13.6945 4.48312 13.5182 4.70521 13.418C4.9273 13.3177 5.17608 13.3022 5.67363 13.2711L7.84192 13.1356C8.90758 13.069 9.44045 13.0357 9.90932 12.8105C10.3783 12.5853 10.7374 12.1903 11.4556 11.4002L13.334 9.33398H11.0007L9.80538 10.5293C9.72592 10.6087 9.68612 10.6485 9.64478 10.6836C9.43212 10.8643 9.16812 10.9736 8.89005 10.9963C8.83592 11.0007 8.77972 11.0007 8.66732 11.0007M8.66732 11.0007C8.66732 10.6909 8.66732 10.536 8.64172 10.4072C8.53652 9.87825 8.12305 9.46478 7.59412 9.35958C7.46532 9.33398 7.31045 9.33398 7.00065 9.33398H6.47964C5.78295 9.33398 5.4346 9.33398 5.10795 9.41798C4.86464 9.48052 4.6314 9.57712 4.41512 9.70492C4.12476 9.87652 3.87844 10.1229 3.38581 10.6155L1.33398 12.6673M8.66732 11.0007H6.33398" stroke="#2B7FFF" stroke-linecap="round" stroke-linejoin="round"/>
<path d="M3.33398 7.66732C3.33398 4.72179 5.72179 2.33398 8.66732 2.33398M8.66732 2.33398C11.6129 2.33398 14.0007 4.72179 14.0007 7.66732M8.66732 2.33398V1.33398" stroke="#2B7FFF" stroke-linecap="round" stroke-linejoin="round"/>
</g>
<defs>
<clipPath id="clip0_40000114_4873">
<rect width="16" height="16" fill="white"/>
</clipPath>
</defs>
</svg>
