<svg width="20" height="20" viewBox="0 0 20 20" fill="none" xmlns="http://www.w3.org/2000/svg">
<path d="M15 1.6665V3.33317M5 1.6665V3.33317" stroke="#27272A" stroke-width="1.5" stroke-linecap="round" stroke-linejoin="round"/>
<path d="M9.99561 10.8335H10.0031M9.99561 14.1668H10.0031M13.3252 10.8335H13.3327M6.66602 10.8335H6.67349M6.66602 14.1668H6.67349" stroke="#27272A" stroke-width="2" stroke-linecap="round" stroke-linejoin="round"/>
<path d="M2.91602 6.6665H17.0827" stroke="#27272A" stroke-width="1.5" stroke-linecap="round" stroke-linejoin="round"/>
<path d="M2.08398 10.2027C2.08398 6.57161 2.08398 4.75607 3.12742 3.62803C4.17085 2.5 5.85023 2.5 9.20898 2.5H10.7923C14.1511 2.5 15.8305 2.5 16.8739 3.62803C17.9173 4.75607 17.9173 6.57161 17.9173 10.2027V10.6306C17.9173 14.2617 17.9173 16.0773 16.8739 17.2053C15.8305 18.3333 14.1511 18.3333 10.7923 18.3333H9.20898C5.85023 18.3333 4.17085 18.3333 3.12742 17.2053C2.08398 16.0773 2.08398 14.2617 2.08398 10.6306V10.2027Z" stroke="#27272A" stroke-width="1.5" stroke-linecap="round" stroke-linejoin="round"/>
<path d="M2.5 6.6665H17.5" stroke="#27272A" stroke-width="1.5" stroke-linecap="round" stroke-linejoin="round"/>
</svg>
