<svg width="64" height="64" viewBox="0 0 64 64" fill="none" xmlns="http://www.w3.org/2000/svg">
<rect width="64" height="64" rx="32" fill="white"/>
<g opacity="0.95">
<path d="M33.334 5.36478C32.8923 5.34303 32.4478 5.33203 32.0007 5.33203C17.2731 5.33203 5.33398 17.2711 5.33398 31.9987C5.33398 46.7263 17.2731 58.6654 32.0007 58.6654C46.7282 58.6654 58.6673 46.7263 58.6673 31.9987C58.6673 29.6967 58.3756 27.4628 57.8272 25.332" stroke="#51A2FF" stroke-width="4" stroke-linecap="round" stroke-linejoin="round"/>
<path d="M21.334 40C23.7663 43.2385 27.6389 45.3333 32.0007 45.3333C36.3624 45.3333 40.235 43.2385 42.6673 40" stroke="#51A2FF" stroke-width="4" stroke-linecap="round" stroke-linejoin="round"/>
<path d="M26.6667 25.332H23.219C22.0116 25.332 20.8537 25.8116 20 26.6654M37.3333 25.332H40.781C41.9884 25.332 43.1463 25.8116 44 26.6654" stroke="#51A2FF" stroke-width="4" stroke-linecap="round" stroke-linejoin="round"/>
<path d="M42.3683 6.21516C44.8711 4.75301 47.0556 5.34224 48.3679 6.28082C48.906 6.66565 49.175 6.85807 49.3333 6.85807C49.4916 6.85807 49.7607 6.66565 50.2987 6.28082C51.611 5.34224 53.7955 4.75301 56.2984 6.21516C59.5831 8.13408 60.3264 14.4647 52.7498 19.8056C51.3067 20.8228 50.5851 21.3315 49.3333 21.3315C48.0816 21.3315 47.36 20.8228 45.9169 19.8056C38.3403 14.4647 39.0835 8.13408 42.3683 6.21516Z" stroke="#51A2FF" stroke-width="4" stroke-linecap="round"/>
</g>
</svg>
