<svg width="36" height="24" viewBox="0 0 36 24" fill="none" xmlns="http://www.w3.org/2000/svg">
<g clip-path="url(#clip0_368_5577)">
<path d="M0 0H36V24H0V0Z" fill="white"/>
<path d="M0 0H36V1.84561H0V0ZM0 3.69123H36V5.53684H0V3.69123ZM0 7.38246H36V9.22807H0V7.38246ZM0 11.0737H36V12.9193H0V11.0737ZM0 14.7719H36V16.6175H0V14.7719ZM0 18.4632H36V20.3088H0V18.4632ZM0 22.1544H36V24H0V22.1544Z" fill="#D80027"/>
<path d="M0 0H18V12.9193H0V0Z" fill="#2E52B2"/>
<path d="M3.35563 9.74743L3.07493 8.84919L2.76616 9.74743H1.83984L2.59072 10.2878L2.31002 11.186L3.07493 10.6316L3.81879 11.186L3.53107 10.2878L4.29598 9.74743H3.35563ZM7.30651 9.74743L7.01879 8.84919L6.72405 9.74743H5.79774L6.54862 10.2878L6.26791 11.186L7.01879 10.6316L7.77669 11.186L7.49598 10.2878L8.24686 9.74743H7.30651ZM11.2714 9.74743L10.9697 8.84919L10.689 9.74743H9.7416L10.5135 10.2878L10.2188 11.186L10.9697 10.6316L11.7416 11.186L11.4469 10.2878L12.1977 9.74743H11.2714ZM15.2153 9.74743L14.9346 8.84919L14.6398 9.74743H13.7065L14.4644 10.2878L14.1837 11.186L14.9346 10.6316L15.6925 11.186L15.3907 10.2878L16.1627 9.74743H15.2153ZM7.01879 5.28428L6.72405 6.18252H5.79774L6.54862 6.73691L6.26791 7.62112L7.01879 7.07375L7.77669 7.62112L7.49598 6.73691L8.24686 6.18252H7.30651L7.01879 5.28428ZM3.07493 5.28428L2.76616 6.18252H1.83984L2.59072 6.73691L2.31002 7.62112L3.07493 7.07375L3.81879 7.62112L3.53107 6.73691L4.29598 6.18252H3.35563L3.07493 5.28428ZM10.9697 5.28428L10.689 6.18252H9.7416L10.5135 6.73691L10.2188 7.62112L10.9697 7.07375L11.7416 7.62112L11.4469 6.73691L12.1977 6.18252H11.2714L10.9697 5.28428ZM14.9346 5.28428L14.6398 6.18252H13.7065L14.4644 6.73691L14.1837 7.62112L14.9346 7.07375L15.6925 7.62112L15.3907 6.73691L16.1627 6.18252H15.2153L14.9346 5.28428ZM3.07493 1.7334L2.76616 2.61761H1.83984L2.59072 3.17199L2.31002 4.06322L3.07493 3.50884L3.81879 4.06322L3.53107 3.17199L4.29598 2.61761H3.35563L3.07493 1.7334ZM7.01879 1.7334L6.72405 2.61761H5.79774L6.54862 3.17199L6.26791 4.06322L7.01879 3.50884L7.77669 4.06322L7.49598 3.17199L8.24686 2.61761H7.30651L7.01879 1.7334ZM10.9697 1.7334L10.689 2.61761H9.7416L10.5135 3.17199L10.2188 4.06322L10.9697 3.50884L11.7416 4.06322L11.4469 3.17199L12.1977 2.61761H11.2714L10.9697 1.7334ZM14.9346 1.7334L14.6398 2.61761H13.7065L14.4644 3.17199L14.1837 4.06322L14.9346 3.50884L15.6925 4.06322L15.3907 3.17199L16.1627 2.61761H15.2153L14.9346 1.7334Z" fill="white"/>
</g>
<defs>
<clipPath id="clip0_368_5577">
<rect width="36" height="24" fill="white"/>
</clipPath>
</defs>
</svg>
