<svg width="40" height="40" viewBox="0 0 40 40" fill="none" xmlns="http://www.w3.org/2000/svg">
<path d="M17.5 34.8333C10.4167 33.5833 5 27.4167 5 20C5 11.75 11.75 5 20 5C28.25 5 35 11.75 35 20C35 27.4167 29.5833 33.5833 22.5 34.8333L21.6667 34.1667H18.3333L17.5 34.8333Z" fill="url(#paint0_linear_40000027_2072)"/>
<path d="M25.8333 24.1663L26.5 19.9997H22.5V17.083C22.5 15.9163 22.9167 14.9997 24.75 14.9997H26.6667V11.1663C25.5833 10.9997 24.4167 10.833 23.3333 10.833C19.9167 10.833 17.5 12.9163 17.5 16.6663V19.9997H13.75V24.1663H17.5V34.7497C18.3333 34.9163 19.1667 34.9997 20 34.9997C20.8333 34.9997 21.6667 34.9163 22.5 34.7497V24.1663H25.8333Z" fill="white"/>
<defs>
<linearGradient id="paint0_linear_40000027_2072" x1="20" y1="33.9617" x2="20" y2="5" gradientUnits="userSpaceOnUse">
<stop stop-color="#0062E0"/>
<stop offset="1" stop-color="#19AFFF"/>
</linearGradient>
</defs>
</svg>
