<svg width="45" height="44" viewBox="0 0 45 44" fill="none" xmlns="http://www.w3.org/2000/svg">
<path d="M19.75 38.3167C11.9583 36.9417 6 30.1583 6 22C6 12.925 13.425 5.5 22.5 5.5C31.575 5.5 39 12.925 39 22C39 30.1583 33.0417 36.9417 25.25 38.3167L24.3333 37.5833H20.6667L19.75 38.3167Z" fill="url(#paint0_linear_40000114_4555)"/>
<path d="M28.9167 26.5834L29.65 22.0001H25.25V18.7917C25.25 17.5084 25.7083 16.5001 27.725 16.5001H29.8333V12.2834C28.6417 12.1001 27.3583 11.9167 26.1667 11.9167C22.4083 11.9167 19.75 14.2084 19.75 18.3334V22.0001H15.625V26.5834H19.75V38.2251C20.6667 38.4084 21.5833 38.5001 22.5 38.5001C23.4167 38.5001 24.3333 38.4084 25.25 38.2251V26.5834H28.9167Z" fill="white"/>
<defs>
<linearGradient id="paint0_linear_40000114_4555" x1="22.5" y1="37.3578" x2="22.5" y2="5.5" gradientUnits="userSpaceOnUse">
<stop stop-color="#0062E0"/>
<stop offset="1" stop-color="#19AFFF"/>
</linearGradient>
</defs>
</svg>
