<svg width="20" height="20" viewBox="0 0 20 20" fill="none" xmlns="http://www.w3.org/2000/svg">
<path d="M10.8359 3.33398L2.5026 3.33398" stroke="#141B34" stroke-width="1.25" stroke-linecap="round" stroke-linejoin="round"/>
<path d="M9.16797 15.834L2.5013 15.834" stroke="#141B34" stroke-width="1.25" stroke-linecap="round" stroke-linejoin="round"/>
<path d="M17.5 15.834L14.1667 15.834" stroke="#141B34" stroke-width="1.25" stroke-linecap="round" stroke-linejoin="round"/>
<path d="M17.5 9.58398L9.16667 9.58398" stroke="#141B34" stroke-width="1.25" stroke-linecap="round" stroke-linejoin="round"/>
<path d="M17.5 3.33398L15.8333 3.33398" stroke="#141B34" stroke-width="1.25" stroke-linecap="round" stroke-linejoin="round"/>
<path d="M4.16797 9.58398L2.5013 9.58398" stroke="#141B34" stroke-width="1.25" stroke-linecap="round" stroke-linejoin="round"/>
<path d="M12.0859 1.66797C12.4742 1.66797 12.6684 1.66797 12.8215 1.7314C13.0257 1.81598 13.1879 1.97821 13.2725 2.1824C13.3359 2.33554 13.3359 2.52968 13.3359 2.91797L13.3359 3.7513C13.3359 4.13959 13.3359 4.33373 13.2725 4.48687C13.1879 4.69106 13.0257 4.85329 12.8215 4.93787C12.6684 5.0013 12.4742 5.0013 12.0859 5.0013C11.6977 5.0013 11.5035 5.0013 11.3504 4.93787C11.1462 4.85329 10.9839 4.69106 10.8994 4.48687C10.8359 4.33373 10.8359 4.13959 10.8359 3.7513L10.8359 2.91797C10.8359 2.52968 10.8359 2.33554 10.8994 2.1824C10.9839 1.97821 11.1462 1.81598 11.3504 1.7314C11.5035 1.66797 11.6977 1.66797 12.0859 1.66797Z" stroke="#141B34" stroke-width="1.25" stroke-linecap="round" stroke-linejoin="round"/>
<path d="M10.418 14.168C10.8063 14.168 11.0004 14.168 11.1535 14.2314C11.3577 14.316 11.52 14.4782 11.6045 14.6824C11.668 14.8355 11.668 15.0297 11.668 15.418L11.668 16.2513C11.668 16.6396 11.668 16.8337 11.6045 16.9869C11.52 17.1911 11.3577 17.3533 11.1535 17.4379C11.0004 17.5013 10.8063 17.5013 10.418 17.5013C10.0297 17.5013 9.83554 17.5013 9.6824 17.4379C9.47821 17.3533 9.31598 17.1911 9.2314 16.9869C9.16797 16.8337 9.16797 16.6396 9.16797 16.2513L9.16797 15.418C9.16797 15.0297 9.16797 14.8355 9.2314 14.6824C9.31598 14.4782 9.47821 14.316 9.6824 14.2314C9.83554 14.168 10.0297 14.168 10.418 14.168Z" stroke="#141B34" stroke-width="1.25" stroke-linecap="round" stroke-linejoin="round"/>
<path d="M7.91797 7.91797C8.30625 7.91797 8.5004 7.91797 8.65354 7.9814C8.85773 8.06598 9.01996 8.22821 9.10454 8.4324C9.16797 8.58554 9.16797 8.77968 9.16797 9.16797L9.16797 10.0013C9.16797 10.3896 9.16797 10.5837 9.10453 10.7369C9.01996 10.9411 8.85773 11.1033 8.65354 11.1879C8.5004 11.2513 8.30625 11.2513 7.91797 11.2513C7.52968 11.2513 7.33554 11.2513 7.1824 11.1879C6.97821 11.1033 6.81598 10.9411 6.7314 10.7369C6.66797 10.5837 6.66797 10.3896 6.66797 10.0013L6.66797 9.16797C6.66797 8.77968 6.66797 8.58554 6.7314 8.4324C6.81598 8.22821 6.97821 8.06598 7.1824 7.9814C7.33554 7.91797 7.52968 7.91797 7.91797 7.91797Z" stroke="#141B34" stroke-width="1.25" stroke-linecap="round" stroke-linejoin="round"/>
</svg>
