<svg width="45" height="44" viewBox="0 0 45 44" fill="none" xmlns="http://www.w3.org/2000/svg">
<path fill-rule="evenodd" clip-rule="evenodd" d="M37.46 22.3545C37.46 21.2495 37.3609 20.187 37.1767 19.167H22.5V25.1949H30.8867C30.5254 27.1428 29.4275 28.7933 27.7771 29.8983V33.8083H32.8133C35.76 31.0953 37.46 27.1003 37.46 22.3545Z" fill="#4285F4"/>
<path fill-rule="evenodd" clip-rule="evenodd" d="M22.5001 37.5835C26.7076 37.5835 30.2351 36.188 32.8134 33.808L27.7772 29.898C26.3817 30.833 24.5967 31.3855 22.5001 31.3855C18.4413 31.3855 15.0059 28.6443 13.7805 24.9609H8.57422V28.9984C11.1384 34.0914 16.4084 37.5835 22.5001 37.5835Z" fill="#34A853"/>
<path fill-rule="evenodd" clip-rule="evenodd" d="M13.7798 24.9614C13.4681 24.0264 13.291 23.0276 13.291 22.0005C13.291 20.9735 13.4681 19.9747 13.7798 19.0397V15.0022H8.57352C7.5181 17.106 6.91602 19.486 6.91602 22.0005C6.91602 24.5151 7.5181 26.8951 8.57352 28.9989L13.7798 24.9614Z" fill="#FBBC05"/>
<path fill-rule="evenodd" clip-rule="evenodd" d="M22.5001 12.6149C24.788 12.6149 26.8422 13.4012 28.4572 14.9453L32.9268 10.4757C30.228 7.96116 26.7005 6.41699 22.5001 6.41699C16.4084 6.41699 11.1384 9.90908 8.57422 15.002L13.7805 19.0395C15.0059 15.3562 18.4413 12.6149 22.5001 12.6149Z" fill="#EA4335"/>
</svg>
