<svg width="20" height="20" viewBox="0 0 20 20" fill="none" xmlns="http://www.w3.org/2000/svg">
<path d="M1.66602 18.3335H18.3327" stroke="white" stroke-width="1.25" stroke-linecap="round"/>
<path d="M14.9993 7.5H11.666C9.59768 7.5 9.16602 7.93167 9.16602 10V18.3333H17.4993V10C17.4993 7.93167 17.0677 7.5 14.9993 7.5Z" stroke="white" stroke-width="1.25" stroke-linejoin="round"/>
<path d="M12.5 18.3332H2.5V4.1665C2.5 2.09817 2.93167 1.6665 5 1.6665H10C12.0683 1.6665 12.5 2.09817 12.5 4.1665V7.49984" stroke="white" stroke-width="1.25" stroke-linejoin="round"/>
<path d="M2.5 5H5M2.5 8.33333H5M2.5 11.6667H5" stroke="white" stroke-width="1.25" stroke-linecap="round"/>
<path d="M12.5 10.8335H14.1667M12.5 13.3335H14.1667" stroke="white" stroke-width="1.25" stroke-linecap="round"/>
<path d="M13.332 18.3335L13.332 15.8335" stroke="white" stroke-width="1.25" stroke-linecap="round" stroke-linejoin="round"/>
</svg>
