<svg width="40" height="40" viewBox="0 0 40 40" fill="none" xmlns="http://www.w3.org/2000/svg">
<path d="M20.0013 5.45508C16.0511 5.45508 15.5554 5.47235 14.0039 5.54296C12.4555 5.61387 11.3985 5.85902 10.4737 6.21871C9.51708 6.59023 8.70559 7.0872 7.89713 7.89599C7.08806 8.70447 6.5911 9.51599 6.21839 10.4724C5.85779 11.3975 5.61235 12.4548 5.54265 14.0027C5.47326 15.5542 5.45508 16.0502 5.45508 20.0005C5.45508 23.9508 5.47265 24.4451 5.54295 25.9966C5.61416 27.5451 5.85931 28.602 6.21869 29.5269C6.5905 30.4836 7.08745 31.2951 7.89622 32.1036C8.70437 32.9127 9.51586 33.4108 10.4719 33.7824C11.3973 34.142 12.4546 34.3872 14.0027 34.4581C15.5542 34.5287 16.0496 34.546 19.9995 34.546C23.95 34.546 24.4442 34.5287 25.9957 34.4581C27.5441 34.3872 28.6023 34.142 29.5277 33.7824C30.484 33.4108 31.2943 32.9127 32.1025 32.1036C32.9115 31.2951 33.4085 30.4836 33.7812 29.5272C34.1388 28.602 34.3842 27.5448 34.4569 25.9969C34.5266 24.4454 34.5448 23.9508 34.5448 20.0005C34.5448 16.0502 34.5266 15.5545 34.4569 14.003C34.3842 12.4545 34.1388 11.3975 33.7812 10.4727C33.4085 9.51599 32.9115 8.70447 32.1025 7.89599C31.2934 7.0869 30.4843 6.58993 29.5268 6.21871C28.5995 5.85902 27.542 5.61387 25.9935 5.54296C24.4421 5.47235 23.9482 5.45508 19.9968 5.45508H20.0013ZM18.6965 8.07629C19.0838 8.07568 19.5159 8.07629 20.0013 8.07629C23.8848 8.07629 24.3451 8.09023 25.8787 8.15993C27.2968 8.22478 28.0665 8.46174 28.5792 8.66084C29.258 8.92447 29.7419 9.23962 30.2507 9.74871C30.7598 10.2578 31.0749 10.7427 31.3391 11.4214C31.5382 11.9336 31.7755 12.7033 31.84 14.1214C31.9097 15.6548 31.9249 16.1154 31.9249 19.9972C31.9249 23.879 31.9097 24.3396 31.84 25.873C31.7752 27.2911 31.5382 28.0608 31.3391 28.573C31.0755 29.2517 30.7598 29.7351 30.2507 30.2439C29.7416 30.753 29.2583 31.0681 28.5792 31.3317C28.0671 31.5317 27.2968 31.7681 25.8787 31.833C24.3454 31.9027 23.8848 31.9178 20.0013 31.9178C16.1175 31.9178 15.6572 31.9027 14.1239 31.833C12.7058 31.7675 11.9361 31.5305 11.4231 31.3314C10.7443 31.0678 10.2595 30.7527 9.7504 30.2436C9.24133 29.7345 8.92619 29.2508 8.66195 28.5717C8.46287 28.0596 8.2256 27.2899 8.16106 25.8717C8.09136 24.3384 8.07742 23.8778 8.07742 19.9936C8.07742 16.1093 8.09136 15.6511 8.16106 14.1178C8.2259 12.6996 8.46287 11.9299 8.66195 11.4172C8.92558 10.7384 9.24133 10.2536 9.7504 9.74447C10.2595 9.23538 10.7443 8.92023 11.4231 8.65599C11.9358 8.45599 12.7058 8.21962 14.1239 8.15447C15.4657 8.09387 15.9857 8.07568 18.6965 8.07265V8.07629ZM27.7653 10.4914C26.8017 10.4914 26.0199 11.2723 26.0199 12.2363C26.0199 13.1999 26.8017 13.9817 27.7653 13.9817C28.7289 13.9817 29.5107 13.1999 29.5107 12.2363C29.5107 11.2727 28.7289 10.4908 27.7653 10.4908V10.4914ZM20.0013 12.5308C15.8763 12.5308 12.5318 15.8754 12.5318 20.0005C12.5318 24.1257 15.8763 27.4687 20.0013 27.4687C24.1263 27.4687 27.4696 24.1257 27.4696 20.0005C27.4696 15.8754 24.126 12.5308 20.001 12.5308H20.0013ZM20.0013 15.152C22.6788 15.152 24.8496 17.3227 24.8496 20.0005C24.8496 22.6781 22.6788 24.849 20.0013 24.849C17.3235 24.849 15.153 22.6781 15.153 20.0005C15.153 17.3227 17.3235 15.152 20.0013 15.152Z" fill="url(#paint0_radial_40000027_2075)"/>
<path d="M20.0013 5.45508C16.0511 5.45508 15.5554 5.47235 14.0039 5.54296C12.4555 5.61387 11.3985 5.85902 10.4737 6.21871C9.51708 6.59023 8.70559 7.0872 7.89713 7.89599C7.08806 8.70447 6.5911 9.51599 6.21839 10.4724C5.85779 11.3975 5.61235 12.4548 5.54265 14.0027C5.47326 15.5542 5.45508 16.0502 5.45508 20.0005C5.45508 23.9508 5.47265 24.4451 5.54295 25.9966C5.61416 27.5451 5.85931 28.602 6.21869 29.5269C6.5905 30.4836 7.08745 31.2951 7.89622 32.1036C8.70437 32.9127 9.51586 33.4108 10.4719 33.7824C11.3973 34.142 12.4546 34.3872 14.0027 34.4581C15.5542 34.5287 16.0496 34.546 19.9995 34.546C23.95 34.546 24.4442 34.5287 25.9957 34.4581C27.5441 34.3872 28.6023 34.142 29.5277 33.7824C30.484 33.4108 31.2943 32.9127 32.1025 32.1036C32.9115 31.2951 33.4085 30.4836 33.7812 29.5272C34.1388 28.602 34.3842 27.5448 34.4569 25.9969C34.5266 24.4454 34.5448 23.9508 34.5448 20.0005C34.5448 16.0502 34.5266 15.5545 34.4569 14.003C34.3842 12.4545 34.1388 11.3975 33.7812 10.4727C33.4085 9.51599 32.9115 8.70447 32.1025 7.89599C31.2934 7.0869 30.4843 6.58993 29.5268 6.21871C28.5995 5.85902 27.542 5.61387 25.9935 5.54296C24.4421 5.47235 23.9482 5.45508 19.9968 5.45508H20.0013ZM18.6965 8.07629C19.0838 8.07568 19.5159 8.07629 20.0013 8.07629C23.8848 8.07629 24.3451 8.09023 25.8787 8.15993C27.2968 8.22478 28.0665 8.46174 28.5792 8.66084C29.258 8.92447 29.7419 9.23962 30.2507 9.74871C30.7598 10.2578 31.0749 10.7427 31.3391 11.4214C31.5382 11.9336 31.7755 12.7033 31.84 14.1214C31.9097 15.6548 31.9249 16.1154 31.9249 19.9972C31.9249 23.879 31.9097 24.3396 31.84 25.873C31.7752 27.2911 31.5382 28.0608 31.3391 28.573C31.0755 29.2517 30.7598 29.7351 30.2507 30.2439C29.7416 30.753 29.2583 31.0681 28.5792 31.3317C28.0671 31.5317 27.2968 31.7681 25.8787 31.833C24.3454 31.9027 23.8848 31.9178 20.0013 31.9178C16.1175 31.9178 15.6572 31.9027 14.1239 31.833C12.7058 31.7675 11.9361 31.5305 11.4231 31.3314C10.7443 31.0678 10.2595 30.7527 9.7504 30.2436C9.24133 29.7345 8.92619 29.2508 8.66195 28.5717C8.46287 28.0596 8.2256 27.2899 8.16106 25.8717C8.09136 24.3384 8.07742 23.8778 8.07742 19.9936C8.07742 16.1093 8.09136 15.6511 8.16106 14.1178C8.2259 12.6996 8.46287 11.9299 8.66195 11.4172C8.92558 10.7384 9.24133 10.2536 9.7504 9.74447C10.2595 9.23538 10.7443 8.92023 11.4231 8.65599C11.9358 8.45599 12.7058 8.21962 14.1239 8.15447C15.4657 8.09387 15.9857 8.07568 18.6965 8.07265V8.07629ZM27.7653 10.4914C26.8017 10.4914 26.0199 11.2723 26.0199 12.2363C26.0199 13.1999 26.8017 13.9817 27.7653 13.9817C28.7289 13.9817 29.5107 13.1999 29.5107 12.2363C29.5107 11.2727 28.7289 10.4908 27.7653 10.4908V10.4914ZM20.0013 12.5308C15.8763 12.5308 12.5318 15.8754 12.5318 20.0005C12.5318 24.1257 15.8763 27.4687 20.0013 27.4687C24.1263 27.4687 27.4696 24.1257 27.4696 20.0005C27.4696 15.8754 24.126 12.5308 20.001 12.5308H20.0013ZM20.0013 15.152C22.6788 15.152 24.8496 17.3227 24.8496 20.0005C24.8496 22.6781 22.6788 24.849 20.0013 24.849C17.3235 24.849 15.153 22.6781 15.153 20.0005C15.153 17.3227 17.3235 15.152 20.0013 15.152Z" fill="url(#paint1_radial_40000027_2075)"/>
<defs>
<radialGradient id="paint0_radial_40000027_2075" cx="0" cy="0" r="1" gradientUnits="userSpaceOnUse" gradientTransform="translate(13.1821 36.7866) rotate(-90) scale(28.8312 26.8142)">
<stop stop-color="#FFDD55"/>
<stop offset="0.1" stop-color="#FFDD55"/>
<stop offset="0.5" stop-color="#FF543E"/>
<stop offset="1" stop-color="#C837AB"/>
</radialGradient>
<radialGradient id="paint1_radial_40000027_2075" cx="0" cy="0" r="1" gradientTransform="matrix(2.52946 12.637 -52.087 10.4326 0.582395 7.55074)" gradientUnits="userSpaceOnUse">
<stop stop-color="#3771C8"/>
<stop offset="0.128" stop-color="#3771C8"/>
<stop offset="1" stop-color="#6600FF" stop-opacity="0"/>
</radialGradient>
</defs>
</svg>
