<svg width="16" height="16" viewBox="0 0 16 16" fill="none" xmlns="http://www.w3.org/2000/svg">
<path d="M8.00098 0.833496C10.5517 0.833496 12.9853 2.34212 14.0039 4.72314C14.9507 6.93638 14.4393 8.82446 13.3721 10.4409C12.4869 11.7816 11.1916 12.9757 10.0264 14.0493C9.81947 14.2399 9.61655 14.4267 9.4209 14.6099C9.03755 14.9688 8.5279 15.1665 8.00098 15.1665C7.47407 15.1665 6.96439 14.9688 6.58105 14.6099L6.58008 14.6089C6.37306 14.4139 6.15823 14.2145 5.93848 14.0112C4.78578 12.9453 3.50787 11.7639 2.63184 10.4399C1.56334 8.82513 1.05008 6.93912 1.99805 4.72314C3.01668 2.34212 5.45026 0.833515 8.00098 0.833496ZM8 4.6665C6.52727 4.6665 5.33305 5.86077 5.33301 7.3335C5.33301 8.80626 6.52724 10.0005 8 10.0005C9.47276 10.0005 10.667 8.80626 10.667 7.3335C10.6669 5.86077 9.47273 4.6665 8 4.6665Z" fill="white"/>
</svg>
