<svg width="20" height="20" viewBox="0 0 20 20" fill="none" xmlns="http://www.w3.org/2000/svg">
<path d="M15.001 1.04297C16.5535 1.04297 18.0347 1.97051 18.6562 3.44141C19.2372 4.81656 18.9143 5.99821 18.2764 6.97656C17.7595 7.76935 17.0032 8.47518 16.3574 9.07715C16.2443 9.18255 16.1347 9.28479 16.0303 9.38379C15.7523 9.64729 15.3827 9.79297 15.001 9.79297C14.6194 9.79286 14.2505 9.64719 13.9727 9.38379L13.9717 9.38281C13.8616 9.2778 13.7449 9.16883 13.625 9.05664L13.1309 8.58887C12.6272 8.10333 12.1112 7.5637 11.7275 6.97656C11.0888 5.99909 10.765 4.81823 11.3467 3.44141C11.9682 1.97067 13.4486 1.04315 15.001 1.04297ZM14.9941 3.54297C14.1925 3.54316 13.543 4.19568 13.543 5.00098C13.543 5.80627 14.1925 6.45879 14.9941 6.45898H15.0078C15.8095 6.45883 16.459 5.8063 16.459 5.00098C16.459 4.19566 15.8095 3.54312 15.0078 3.54297H14.9941Z" fill="#6F8DC1"/>
<path d="M1.04102 15.834C1.04102 14.1081 2.44013 12.709 4.16602 12.709C5.89191 12.709 7.29102 14.1081 7.29102 15.834C7.29102 17.5599 5.89191 18.959 4.16602 18.959C2.44013 18.959 1.04102 17.5599 1.04102 15.834Z" fill="#6F8DC1"/>
<path fill-rule="evenodd" clip-rule="evenodd" d="M4.16602 8.33333C4.16602 6.3765 5.97009 5 7.91602 5H9.16602C9.62625 5 9.99935 5.3731 9.99935 5.83333C9.99935 6.29357 9.62625 6.66667 9.16602 6.66667H7.91602C6.64028 6.66667 5.83268 7.52875 5.83268 8.33333C5.83268 9.13792 6.64028 10 7.91602 10H10.416C12.3619 10 14.166 11.3765 14.166 13.3333C14.166 15.2902 12.3619 16.6667 10.416 16.6667H9.16602C8.70578 16.6667 8.33268 16.2936 8.33268 15.8333C8.33268 15.3731 8.70578 15 9.16602 15H10.416C11.6918 15 12.4993 14.1379 12.4993 13.3333C12.4993 12.5287 11.6918 11.6667 10.416 11.6667H7.91602C5.97009 11.6667 4.16602 10.2902 4.16602 8.33333Z" fill="#6F8DC1"/>
</svg>
