<svg width="20" height="20" viewBox="0 0 20 20" fill="none" xmlns="http://www.w3.org/2000/svg">
<path d="M10.001 1.04297C13.1894 1.04302 16.2316 2.92894 17.5049 5.90527C18.6881 8.67161 18.0488 11.0313 16.7148 13.0518C15.6083 14.7277 13.9878 16.2204 12.5312 17.5625C12.2729 17.8005 12.0197 18.0339 11.7754 18.2627C11.2962 18.7113 10.6596 18.959 10.001 18.959C9.34232 18.959 8.70575 18.7113 8.22656 18.2627L8.22559 18.2617C7.96677 18.0179 7.69759 17.7687 7.42285 17.5146C5.98196 16.1822 4.38411 14.7057 3.28906 13.0508C1.9535 11.0324 1.31232 8.67508 2.49707 5.90527C3.77033 2.9289 6.81251 1.04297 10.001 1.04297ZM10 5.83398C8.15905 5.83398 6.66602 7.32702 6.66602 9.16797C6.66619 11.0088 8.15916 12.501 10 12.501C11.8406 12.5007 13.3328 11.0086 13.333 9.16797C13.333 7.32717 11.8407 5.83422 10 5.83398Z" fill="#6F8DC1"/>
</svg>
