<svg width="65" height="64" viewBox="0 0 65 64" fill="none" xmlns="http://www.w3.org/2000/svg">
<path d="M41.3195 16.4785H24.0137V47.5776H41.3195V16.4785Z" fill="#FF5F00"/>
<path d="M25.1123 32.0281C25.1096 29.033 25.7883 26.0766 27.0971 23.3826C28.4058 20.6886 30.3103 18.3277 32.6664 16.4786C29.7487 14.1852 26.2447 12.759 22.5548 12.363C18.8649 11.9669 15.138 12.617 11.8001 14.239C8.46217 15.8609 5.64793 18.3892 3.67903 21.535C1.71014 24.6808 0.666016 28.317 0.666016 32.0281C0.666016 35.7392 1.71014 39.3755 3.67903 42.5212C5.64793 45.667 8.46217 48.1953 11.8001 49.8172C15.138 51.4392 18.8649 52.0893 22.5548 51.6933C26.2447 51.2972 29.7487 49.871 32.6664 47.5776C30.3104 45.7285 28.4058 43.3676 27.0971 40.6736C25.7883 37.9796 25.1096 35.0232 25.1123 32.0281Z" fill="#EB001B"/>
<path d="M64.6654 32.0281C64.6656 35.7391 63.6216 39.3754 61.6528 42.5211C59.684 45.6669 56.8698 48.1952 53.532 49.8172C50.1942 51.4392 46.4673 52.0893 42.7775 51.6932C39.0876 51.2972 35.5836 49.871 32.666 47.5776C35.02 45.7266 36.923 43.3653 38.2316 40.6717C39.5401 37.9782 40.22 35.0227 40.22 32.0281C40.22 29.0335 39.5401 26.078 38.2316 23.3844C36.923 20.6909 35.02 18.3296 32.666 16.4786C35.5836 14.1852 39.0876 12.759 42.7775 12.363C46.4673 11.9669 50.1942 12.617 53.532 14.239C56.8698 15.861 59.684 18.3893 61.6528 21.5351C63.6216 24.6808 64.6656 28.317 64.6654 32.0281Z" fill="#F79E1B"/>
<path d="M62.7779 44.2833V43.6466H63.0347V43.5169H62.3809V43.6466H62.6377V44.2833H62.7779ZM64.0473 44.2833V43.5156H63.8469L63.6164 44.0437L63.3858 43.5156H63.1853V44.2833H63.3268V43.7042L63.543 44.2035H63.6897L63.9059 43.703V44.2833H64.0473Z" fill="#F79E1B"/>
</svg>
