<svg width="40" height="40" viewBox="0 0 40 40" fill="none" xmlns="http://www.w3.org/2000/svg">
<path d="M25.4079 10.2988H14.5918V29.7357H25.4079V10.2988Z" fill="#FF5F00"/>
<path d="M15.279 20.0176C15.2772 18.1456 15.7014 16.2979 16.5194 14.6141C17.3374 12.9304 18.5277 11.4548 20.0002 10.2991C18.1767 8.86575 15.9867 7.97437 13.6805 7.72685C11.3743 7.47932 9.04498 7.88564 6.95879 8.89935C4.8726 9.91307 3.1137 11.4933 1.88314 13.4594C0.652576 15.4255 0 17.6981 0 20.0176C0 22.337 0.652576 24.6097 1.88314 26.5758C3.1137 28.5418 4.8726 30.1221 6.95879 31.1358C9.04498 32.1495 11.3743 32.5558 13.6805 32.3083C15.9867 32.0608 18.1767 31.1694 20.0002 29.736C18.5277 28.5803 17.3374 27.1047 16.5194 25.421C15.7014 23.7372 15.2773 21.8895 15.279 20.0176Z" fill="#EB001B"/>
<path d="M39.9996 20.0176C39.9997 22.337 39.3472 24.6096 38.1167 26.5757C36.8862 28.5418 35.1274 30.122 33.0412 31.1357C30.9551 32.1495 28.6258 32.5558 26.3197 32.3083C24.0135 32.0608 21.8235 31.1694 20 29.736C21.4713 28.5791 22.6606 27.1033 23.4785 25.4198C24.2963 23.7364 24.7213 21.8892 24.7213 20.0176C24.7213 18.1459 24.2963 16.2988 23.4785 14.6153C22.6606 12.9318 21.4713 11.456 20 10.2991C21.8235 8.86575 24.0135 7.97437 26.3197 7.72685C28.6258 7.47932 30.9551 7.88565 33.0412 8.89937C35.1274 9.9131 36.8862 11.4933 38.1167 13.4594C39.3472 15.4255 39.9997 17.6981 39.9996 20.0176Z" fill="#F79E1B"/>
<path d="M38.8204 27.6771V27.2791H38.9809V27.1981H38.5723V27.2791H38.7328V27.6771H38.8204ZM39.6138 27.6771V27.1973H39.4885L39.3445 27.5273L39.2004 27.1973H39.075V27.6771H39.1635V27.3152L39.2986 27.6272H39.3903L39.5254 27.3144V27.6771H39.6138Z" fill="#F79E1B"/>
</svg>
