<svg width="33" height="32" viewBox="0 0 33 32" fill="none" xmlns="http://www.w3.org/2000/svg">
<path d="M17.9688 5.37891C19.1074 5.3789 19.8794 5.3694 20.6172 5.59277C21.0399 5.72082 21.5691 6.02227 22.0361 6.30859C22.5343 6.61404 23.0842 6.98028 23.5781 7.30957C24.1121 7.66554 24.355 7.82122 24.5283 7.90234L24.6875 7.96387L24.8525 8.00098C25.0417 8.02963 25.3298 8.03515 25.9717 8.03516H29.6748C30.2245 8.03533 30.6707 8.48054 30.6709 9.03027C30.6708 9.58004 30.2246 10.0262 29.6748 10.0264H25.9717C25.232 10.0264 24.6591 10.0365 24.1094 9.87012V9.86914C23.5599 9.70262 23.0891 9.37708 22.4736 8.9668C21.9719 8.63225 21.455 8.28778 20.9951 8.00586C20.5044 7.70501 20.1821 7.54214 20.04 7.49902C19.6493 7.38073 19.2234 7.3711 17.9688 7.37109C17.1431 7.37109 16.5113 7.37118 15.9951 7.40625C15.478 7.44142 15.1579 7.50819 14.9395 7.59863C14.4332 7.80845 14.012 8.20381 12.8037 9.41211L11.791 10.4258C11.656 10.5608 11.5744 10.6426 11.5156 10.7061C11.4842 10.74 11.4681 10.7587 11.4619 10.7666C11.3877 10.8853 11.3959 11.0384 11.4824 11.1484C11.4896 11.1557 11.5075 11.1731 11.542 11.2031C11.6073 11.2599 11.6971 11.3326 11.8457 11.4521C12.5049 11.9823 13.454 11.9295 14.0518 11.3281L15.6904 9.67969C15.8774 9.49167 16.1323 9.38672 16.3975 9.38672H17.7246L17.8242 9.3916C18.0527 9.41458 18.2683 9.51536 18.4316 9.67969L26.3984 17.6943C26.684 17.9817 26.8954 18.315 27.0352 18.6699H29.6602C30.21 18.6699 30.656 19.1162 30.6562 19.666C30.6562 20.216 30.2101 20.6621 29.6602 20.6621H27.0811C26.9441 21.0661 26.7189 21.4471 26.3984 21.7695C25.6925 22.4797 24.7093 22.7425 23.7979 22.5596C23.6664 23.0036 23.4269 23.4226 23.0781 23.7734C22.156 24.7008 20.7626 24.8646 19.6719 24.2686C19.5337 24.5724 19.3435 24.8591 19.0947 25.1094C17.9722 26.2381 16.15 26.2379 15.0273 25.1094L14.9707 25.0527C14.8379 25.3132 14.6652 25.5591 14.4482 25.7773C13.3257 26.9064 11.5026 26.906 10.3799 25.7773L10.375 25.7715L6.625 21.9443C5.79763 21.0997 5.56707 20.89 5.30176 20.7783C5.03642 20.6668 4.72583 20.6484 3.54297 20.6484H3.11914C2.56935 20.6484 2.12338 20.203 2.12305 19.6533C2.12305 19.1033 2.56915 18.6572 3.11914 18.6572H3.54297C4.56099 18.6572 5.35176 18.6392 6.07324 18.9424L6.33594 19.0684C6.93248 19.392 7.42418 19.9141 8.04785 20.5508L11.792 24.373L11.8594 24.4336C12.205 24.7169 12.7129 24.697 13.0352 24.373C13.3604 24.0458 13.3809 23.5254 13.0967 23.1738L13.0352 23.1055L12.3711 22.4375C11.9836 22.0474 11.9861 21.417 12.376 21.0293C12.766 20.6418 13.3965 20.6433 13.7842 21.0332L14.4482 21.7012L16.4395 23.7051C16.7834 24.0506 17.3388 24.0508 17.6826 23.7051L17.7432 23.6367C18.0275 23.2859 18.008 22.7669 17.6846 22.4395L15.0293 19.7842C14.6404 19.3953 14.6404 18.7649 15.0293 18.376C15.4182 17.9872 16.0486 17.9871 16.4375 18.376L19.0947 21.0332L20.4229 22.3691C20.7668 22.7149 21.3221 22.7151 21.666 22.3691L21.7275 22.3008C22.0118 21.9495 21.9911 21.4289 21.666 21.1016L17.6826 17.0947C17.295 16.7047 17.2966 16.0743 17.6865 15.6865C18.0765 15.2989 18.707 15.3007 19.0947 15.6904L23.0781 19.6982L23.7422 20.3652C24.0862 20.711 24.6415 20.7112 24.9854 20.3652C25.3323 20.016 25.3322 19.4479 24.9854 19.0986L17.3105 11.3779H16.8115L15.4648 12.7324C14.1493 14.0558 12.0517 14.1735 10.5977 13.0039C10.3567 12.81 10.0984 12.6102 9.91699 12.3799C9.37836 11.6952 9.27392 10.7757 9.62207 9.99609H2.99414C2.44424 9.99609 1.99819 9.54987 1.99805 9C1.99805 8.45001 2.44415 8.00391 2.99414 8.00391H11.3955C12.4893 6.91016 13.2202 6.15444 14.1777 5.75781C14.6912 5.54521 15.263 5.45956 15.8604 5.41895C16.4587 5.3783 17.1668 5.37891 17.9688 5.37891Z" fill="#FFDF20"/>
</svg>
