<svg width="40" height="40" viewBox="0 0 40 40" fill="none" xmlns="http://www.w3.org/2000/svg">
<g clip-path="url(#clip0_40000027_2107)">
<path d="M30.7451 17.2627H28.5312C28.3801 17.2627 28.2513 17.3727 28.2276 17.5223L27.3324 23.1983C27.3146 23.3103 27.4013 23.4113 27.5143 23.4113H28.6503C28.7559 23.4113 28.8462 23.3342 28.8627 23.2294L29.1167 21.6205C29.14 21.4706 29.2692 21.3606 29.4203 21.3606H30.1207C31.5792 21.3606 32.4204 20.655 32.6404 19.2568C32.7398 18.6451 32.6443 18.1644 32.3579 17.8278C32.0436 17.4582 31.4859 17.2627 30.7451 17.2627ZM31.0004 19.3357C30.8797 20.13 30.2729 20.13 29.6857 20.13H29.352L29.5867 18.6467C29.6006 18.557 29.6776 18.491 29.7686 18.491H29.9217C30.3211 18.491 30.6985 18.491 30.8933 18.7188C31.0095 18.8548 31.0448 19.0567 31.0004 19.3357Z" fill="#179BD7"/>
<path d="M37.3617 19.3096H36.3024C36.2114 19.3096 36.1341 19.3757 36.1205 19.4653L36.0736 19.7618L35.9991 19.6543C35.7696 19.3213 35.2583 19.21 34.7475 19.21C33.5762 19.21 32.5761 20.0971 32.3812 21.3416C32.2802 21.9624 32.4236 22.556 32.7758 22.9699C33.0994 23.3506 33.561 23.5091 34.1109 23.5091C35.0547 23.5091 35.578 22.9023 35.578 22.9023L35.5308 23.1968C35.513 23.3094 35.5997 23.4104 35.7133 23.4104H36.6678C36.8189 23.4104 36.9478 23.3004 36.9714 23.1505L37.5446 19.5226C37.5621 19.411 37.4753 19.3096 37.3617 19.3096ZM35.8842 21.3727C35.7826 21.9782 35.3013 22.3847 34.6883 22.3847C34.3811 22.3847 34.1345 22.286 33.9766 22.099C33.8199 21.9132 33.761 21.6487 33.8102 21.3542C33.9063 20.7538 34.3944 20.334 34.998 20.334C35.299 20.334 35.5437 20.434 35.7049 20.6227C35.8671 20.8134 35.9311 21.0794 35.8842 21.3727Z" fill="#179BD7"/>
<path d="M38.612 17.4177L37.7035 23.1977C37.6857 23.3096 37.7724 23.4106 37.8854 23.4106H38.7988C38.9506 23.4106 39.0794 23.3006 39.1027 23.1507L39.9986 17.475C40.0164 17.363 39.9296 17.2617 39.8167 17.2617H38.7939C38.7036 17.262 38.6259 17.3281 38.612 17.4177Z" fill="#179BD7"/>
<path d="M14.958 17.2627H12.7445C12.593 17.2627 12.4642 17.3727 12.4405 17.5223L11.5453 23.1983C11.5275 23.3103 11.6142 23.4113 11.7278 23.4113H12.7846C12.9361 23.4113 13.0649 23.3012 13.0885 23.1514L13.33 21.6205C13.3533 21.4706 13.4824 21.3606 13.6336 21.3606H14.3343C15.7924 21.3606 16.6339 20.655 16.8537 19.2568C16.9527 18.6451 16.8579 18.1644 16.5714 17.8278C16.2568 17.4582 15.6988 17.2627 14.958 17.2627ZM15.2133 19.3357C15.0923 20.13 14.4854 20.13 13.8986 20.13H13.5646L13.7989 18.6467C13.8129 18.557 13.8905 18.491 13.9812 18.491H14.1343C14.534 18.491 14.911 18.491 15.1059 18.7188C15.2221 18.8548 15.2577 19.0567 15.2133 19.3357Z" fill="#253B80"/>
<path d="M21.574 19.3096H20.5141C20.4238 19.3096 20.3458 19.3757 20.3318 19.4653L20.2849 19.7618L20.2108 19.6543C19.9813 19.3213 19.4696 19.21 18.9589 19.21C17.7875 19.21 16.7871 20.0971 16.5923 21.3416C16.491 21.9624 16.635 22.556 16.9871 22.9699C17.3101 23.3506 17.7723 23.5091 18.3222 23.5091C19.266 23.5091 19.7894 22.9023 19.7894 22.9023L19.7421 23.1968C19.7243 23.3094 19.8111 23.4104 19.924 23.4104H20.8788C21.0306 23.4104 21.1588 23.3004 21.1827 23.1505L21.7556 19.5226C21.7737 19.411 21.6873 19.3096 21.574 19.3096ZM20.0965 21.3727C19.9943 21.9782 19.5136 22.3847 18.9006 22.3847C18.5928 22.3847 18.3468 22.286 18.1889 22.099C18.0322 21.9132 17.9727 21.6487 18.0225 21.3542C18.118 20.7538 18.6067 20.334 19.2103 20.334C19.5114 20.334 19.756 20.434 19.9172 20.6227C20.0787 20.8134 20.1428 21.0794 20.0965 21.3727Z" fill="#253B80"/>
<path d="M27.2199 19.3096H26.1547C26.0531 19.3096 25.9576 19.3601 25.9 19.4445L24.4309 21.6085L23.8082 19.529C23.769 19.3989 23.6489 19.3096 23.513 19.3096H22.4663C22.3391 19.3096 22.2507 19.4339 22.2912 19.5536L23.4644 22.9967L22.3614 24.5538C22.2747 24.6765 22.362 24.8451 22.5119 24.8451H23.5758C23.6768 24.8451 23.7713 24.7959 23.8285 24.7131L27.3713 19.5992C27.4561 19.4769 27.3691 19.3096 27.2199 19.3096Z" fill="#253B80"/>
<path d="M2.35206 24.5138L2.52134 23.4386L2.14427 23.4298H0.34375L1.59502 15.4959C1.59891 15.472 1.61153 15.4496 1.62998 15.4338C1.64843 15.4179 1.67205 15.4092 1.69665 15.4092H4.73259C5.74047 15.4092 6.43602 15.6189 6.79916 16.0329C6.96941 16.2271 7.07783 16.43 7.13027 16.6533C7.18529 16.8877 7.18626 17.1676 7.13253 17.5091L7.12865 17.534V17.7528L7.29889 17.8493C7.44228 17.9253 7.55621 18.0124 7.64359 18.1121C7.78924 18.2781 7.88343 18.4891 7.92324 18.7393C7.96434 18.9966 7.95075 19.3028 7.88343 19.6495C7.80575 20.0482 7.68017 20.3955 7.51057 20.6797C7.35457 20.9415 7.15584 21.1587 6.91989 21.327C6.69462 21.4869 6.42695 21.6083 6.12433 21.6859C5.83109 21.7623 5.49675 21.8008 5.13004 21.8008H4.89377C4.72482 21.8008 4.56073 21.8617 4.43191 21.9708C4.30277 22.0821 4.21732 22.2342 4.19111 22.4006L4.1733 22.4973L3.87424 24.3924L3.86065 24.462C3.85709 24.484 3.85094 24.495 3.84188 24.5024C3.83378 24.5092 3.82213 24.5138 3.8108 24.5138H2.35206Z" fill="#253B80"/>
<path d="M7.46072 17.5596C7.45166 17.6175 7.4413 17.6767 7.42965 17.7376C7.02928 19.7932 5.65955 20.5033 3.91016 20.5033H3.01945C2.80551 20.5033 2.62523 20.6586 2.59189 20.8696L2.13585 23.7619L2.00671 24.5817C1.98503 24.7202 2.09183 24.8452 2.23166 24.8452H3.81144C3.99852 24.8452 4.15744 24.7092 4.18689 24.5248L4.20243 24.4445L4.49987 22.5569L4.51897 22.4533C4.5481 22.2682 4.70734 22.1322 4.89441 22.1322H5.13068C6.66128 22.1322 7.85947 21.5108 8.20967 19.7126C8.35596 18.9613 8.28023 18.3341 7.89313 17.8929C7.77596 17.7599 7.63064 17.6495 7.46072 17.5596Z" fill="#179BD7"/>
<path d="M7.04181 17.3927C6.98064 17.3749 6.91752 17.3587 6.85279 17.3442C6.78773 17.3299 6.72106 17.3173 6.65244 17.3063C6.41229 17.2675 6.14915 17.249 5.86724 17.249H3.48769C3.42911 17.249 3.37344 17.2623 3.32359 17.2862C3.21387 17.339 3.13231 17.4429 3.11257 17.5701L2.60636 20.7763L2.5918 20.8698C2.62513 20.6588 2.80541 20.5034 3.01935 20.5034H3.91007C5.65945 20.5034 7.02919 19.793 7.42955 17.7378C7.44153 17.6769 7.45156 17.6177 7.46063 17.5597C7.35932 17.506 7.2496 17.4601 7.13146 17.4209C7.10233 17.4112 7.07223 17.4018 7.04181 17.3927Z" fill="#222D65"/>
<path d="M3.11167 17.57C3.13141 17.4428 3.21298 17.3389 3.3227 17.2865C3.37286 17.2625 3.42821 17.2492 3.48679 17.2492H5.86635C6.14826 17.2492 6.41139 17.2677 6.65155 17.3065C6.72016 17.3175 6.78684 17.3302 6.85189 17.3444C6.91663 17.359 6.97974 17.3751 7.04091 17.3929C7.07134 17.402 7.10144 17.4114 7.13089 17.4208C7.24903 17.4599 7.35875 17.5062 7.46005 17.5596C7.57916 16.8 7.45908 16.2828 7.04836 15.8145C6.59555 15.2989 5.77831 15.0781 4.73256 15.0781H1.69663C1.48301 15.0781 1.30079 15.2335 1.26778 15.4448L0.00323299 23.4603C-0.0216889 23.6189 0.100655 23.7619 0.260543 23.7619H2.13486L2.60547 20.7762L3.11167 17.57Z" fill="#253B80"/>
</g>
<defs>
<clipPath id="clip0_40000027_2107">
<rect width="40" height="40" fill="white"/>
</clipPath>
</defs>
</svg>
