<svg width="64" height="64" viewBox="0 0 64 64" fill="none" xmlns="http://www.w3.org/2000/svg">
<g clip-path="url(#clip0_624_21252)">
<path d="M49.1925 27.6191H45.6504C45.4085 27.6191 45.2024 27.7952 45.1646 28.0345L43.7322 37.1161C43.7038 37.2953 43.8425 37.4569 44.0233 37.4569H45.8409C46.0098 37.4569 46.1543 37.3336 46.1807 37.1658L46.5872 34.5916C46.6245 34.3518 46.8311 34.1757 47.0729 34.1757H48.1936C50.527 34.1757 51.873 33.0468 52.2251 30.8097C52.3841 29.8309 52.2313 29.0619 51.773 28.5233C51.2702 27.9319 50.3779 27.6191 49.1925 27.6191ZM49.6011 30.936C49.4079 32.2068 48.437 32.2068 47.4976 32.2068H46.9637L47.3391 29.8335C47.3614 29.6901 47.4846 29.5844 47.6301 29.5844H47.8751C48.5141 29.5844 49.1179 29.5844 49.4297 29.949C49.6156 30.1665 49.6721 30.4896 49.6011 30.936Z" fill="#179BD7"/>
<path d="M59.7791 30.8978H58.0842C57.9387 30.8978 57.8149 31.0034 57.7932 31.1469L57.7181 31.6212L57.599 31.4493C57.2318 30.9164 56.4136 30.7383 55.5964 30.7383C53.7223 30.7383 52.1221 32.1577 51.8104 34.1489C51.6488 35.1421 51.8782 36.0919 52.4416 36.7542C52.9595 37.3632 53.6979 37.617 54.5778 37.617C56.0879 37.617 56.9252 36.646 56.9252 36.646L56.8496 37.1172C56.8211 37.2975 56.9599 37.459 57.1417 37.459H58.6689C58.9107 37.459 59.1168 37.283 59.1546 37.0432L60.0717 31.2385C60.0997 31.0599 59.9609 30.8978 59.7791 30.8978ZM57.4151 34.1986C57.2525 35.1675 56.4825 35.8179 55.5016 35.8179C55.0102 35.8179 54.6156 35.66 54.3629 35.3607C54.1122 35.0634 54.018 34.6403 54.0967 34.1691C54.2505 33.2085 55.0314 32.5368 55.9972 32.5368C56.4788 32.5368 56.8703 32.6968 57.1282 32.9987C57.3877 33.3037 57.4902 33.7294 57.4151 34.1986Z" fill="#179BD7"/>
<path d="M61.7796 27.8687L60.326 37.1166C60.2975 37.2958 60.4363 37.4574 60.617 37.4574H62.0784C62.3213 37.4574 62.5274 37.2813 62.5647 37.0416L63.9981 27.9604C64.0266 27.7812 63.8878 27.6191 63.7071 27.6191H62.0706C61.9262 27.6197 61.8019 27.7253 61.7796 27.8687Z" fill="#179BD7"/>
<path d="M23.9288 27.6191H20.3872C20.1449 27.6191 19.9388 27.7952 19.901 28.0345L18.4686 37.1161C18.4401 37.2953 18.5789 37.4569 18.7606 37.4569H20.4514C20.6938 37.4569 20.8999 37.2808 20.9377 37.041L21.324 34.5916C21.3613 34.3518 21.5679 34.1757 21.8098 34.1757H22.9309C25.2639 34.1757 26.6103 33.0468 26.9619 30.8097C27.1204 29.8309 26.9687 29.0619 26.5104 28.5233C26.007 27.9319 25.1142 27.6191 23.9288 27.6191ZM24.3374 30.936C24.1438 32.2068 23.1728 32.2068 22.2339 32.2068H21.6995L22.0744 29.8335C22.0967 29.6901 22.221 29.5844 22.366 29.5844H22.6109C23.2505 29.5844 23.8538 29.5844 24.1655 29.949C24.3514 30.1665 24.4084 30.4896 24.3374 30.936Z" fill="#253B80"/>
<path d="M34.5177 30.8939H32.8217C32.6772 30.8939 32.5524 30.9995 32.5302 31.143L32.4551 31.6173L32.3365 31.4454C31.9693 30.9125 31.1506 30.7344 30.3334 30.7344C28.4593 30.7344 26.8586 32.1538 26.5468 34.145C26.3847 35.1382 26.6152 36.088 27.1786 36.7503C27.6954 37.3593 28.4349 37.6131 29.3148 37.6131C30.8248 37.6131 31.6622 36.6421 31.6622 36.6421L31.5866 37.1133C31.5581 37.2936 31.6969 37.4551 31.8777 37.4551H33.4053C33.6482 37.4551 33.8533 37.2791 33.8916 37.0393L34.8082 31.2346C34.8372 31.056 34.6989 30.8939 34.5177 30.8939ZM32.1537 34.1947C31.99 35.1636 31.221 35.814 30.2402 35.814C29.7477 35.814 29.3541 35.6561 29.1014 35.3568C28.8508 35.0595 28.7555 34.6364 28.8352 34.1652C28.988 33.2046 29.77 32.5329 30.7358 32.5329C31.2174 32.5329 31.6089 32.6929 31.8668 32.9948C32.1252 33.2998 32.2277 33.7255 32.1537 34.1947Z" fill="#253B80"/>
<path d="M43.5483 30.8945H41.844C41.6814 30.8945 41.5286 30.9753 41.4365 31.1105L39.0859 34.5729L38.0895 31.2456C38.0269 31.0375 37.8348 30.8945 37.6173 30.8945H35.9425C35.739 30.8945 35.5976 31.0934 35.6623 31.285L37.5396 36.794L35.7747 39.2854C35.6359 39.4816 35.7758 39.7514 36.0155 39.7514H37.7177C37.8793 39.7514 38.0305 39.6727 38.1222 39.5402L43.7906 31.358C43.9263 31.1623 43.787 30.8945 43.5483 30.8945Z" fill="#253B80"/>
<path d="M3.76409 39.2236L4.03492 37.5033L3.43162 37.4893H0.550781L2.55282 24.795C2.55903 24.7567 2.57923 24.721 2.60875 24.6956C2.63826 24.6702 2.67607 24.6562 2.71542 24.6562H7.57293C9.18553 24.6562 10.2984 24.9918 10.8794 25.6542C11.1518 25.9649 11.3253 26.2896 11.4092 26.6469C11.4972 27.0218 11.4988 27.4698 11.4128 28.0161L11.4066 28.056V28.4061L11.679 28.5604C11.9084 28.6821 12.0907 28.8214 12.2305 28.9809C12.4636 29.2465 12.6143 29.5842 12.678 29.9845C12.7437 30.3962 12.722 30.8861 12.6143 31.4407C12.49 32.0787 12.2891 32.6344 12.0177 33.089C11.7681 33.508 11.4501 33.8555 11.0726 34.1248C10.7122 34.3806 10.2839 34.5748 9.79971 34.6991C9.33053 34.8213 8.79559 34.8829 8.20885 34.8829H7.83082C7.5605 34.8829 7.29794 34.9803 7.09184 35.1548C6.88521 35.3329 6.7485 35.5763 6.70655 35.8425L6.67807 35.9973L6.19957 39.0294L6.17782 39.1407C6.17212 39.1759 6.16228 39.1935 6.14778 39.2054C6.13484 39.2163 6.11619 39.2236 6.09807 39.2236H3.76409Z" fill="#253B80"/>
<path d="M11.9379 28.0977C11.9234 28.1904 11.9069 28.2851 11.8882 28.3825C11.2476 31.6714 9.05606 32.8076 6.25704 32.8076H4.83189C4.48959 32.8076 4.20114 33.0561 4.14781 33.3938L3.41814 38.0214L3.21152 39.3331C3.17682 39.5547 3.34772 39.7546 3.57143 39.7546H6.09909C6.39841 39.7546 6.65268 39.5371 6.6998 39.2419L6.72466 39.1135L7.20057 36.0934L7.23113 35.9277C7.27773 35.6314 7.53252 35.4139 7.83184 35.4139H8.20988C10.6588 35.4139 12.5759 34.4197 13.1363 31.5424C13.3703 30.3405 13.2491 29.3369 12.6298 28.631C12.4423 28.4182 12.2098 28.2416 11.9379 28.0977Z" fill="#179BD7"/>
<path d="M11.2665 27.8276C11.1686 27.7991 11.0676 27.7732 10.9641 27.7499C10.86 27.7271 10.7533 27.7069 10.6435 27.6893C10.2593 27.6272 9.83825 27.5977 9.3872 27.5977H5.57991C5.48618 27.5977 5.39711 27.6189 5.31736 27.6572C5.14181 27.7416 5.01131 27.9079 4.97972 28.1114L4.16979 33.2413L4.14648 33.3909C4.19982 33.0533 4.48827 32.8047 4.83057 32.8047H6.25572C9.05473 32.8047 11.2463 31.668 11.8869 28.3796C11.9061 28.2823 11.9221 28.1875 11.9366 28.0948C11.7745 28.0088 11.599 27.9353 11.4099 27.8726C11.3633 27.8571 11.3152 27.8421 11.2665 27.8276Z" fill="#222D65"/>
<path d="M4.97867 28.112C5.01026 27.9085 5.14076 27.7422 5.31632 27.6583C5.39658 27.62 5.48514 27.5988 5.57887 27.5988H9.38616C9.83721 27.5988 10.2582 27.6283 10.6425 27.6904C10.7523 27.7081 10.8589 27.7282 10.963 27.751C11.0666 27.7743 11.1676 27.8002 11.2655 27.8287C11.3141 27.8432 11.3623 27.8582 11.4094 27.8733C11.5984 27.9359 11.774 28.01 11.9361 28.0954C12.1267 26.88 11.9345 26.0525 11.2774 25.3031C10.5529 24.4782 9.2453 24.125 7.5721 24.125H2.7146C2.37282 24.125 2.08126 24.3736 2.02844 24.7117L0.00517278 37.5365C-0.0347022 37.7902 0.161048 38.0191 0.416869 38.0191H3.41578L4.16874 33.2419L4.97867 28.112Z" fill="#253B80"/>
</g>
<defs>
<clipPath id="clip0_624_21252">
<rect width="64" height="64" fill="white"/>
</clipPath>
</defs>
</svg>
