<svg width="16" height="16" viewBox="0 0 16 16" fill="none" xmlns="http://www.w3.org/2000/svg">
<path d="M14.6673 13.9993H14.0007C13.0331 13.9993 12.186 13.4267 12.0007 12.666C11.8153 13.4267 10.9683 13.9993 10.0007 13.9993C9.03305 13.9993 8.18598 13.4267 8.00065 12.666C7.81532 13.4267 6.96825 13.9993 6.00065 13.9993C5.03307 13.9993 4.18596 13.4267 4.00065 12.666C3.81534 13.4267 2.96823 13.9993 2.00065 13.9993H1.33398" stroke="#2B7FFF" stroke-linecap="round" stroke-linejoin="round"/>
<path d="M12.666 2L12.4894 2.05887C11.6094 2.35221 11.1693 2.49888 10.9177 2.84807C10.666 3.19725 10.666 3.66106 10.666 4.58869V11.3333" stroke="#2B7FFF" stroke-linecap="round" stroke-linejoin="round"/>
<path d="M7.33398 2L7.15738 2.05887C6.27735 2.35221 5.83734 2.49888 5.58566 2.84807C5.33398 3.19725 5.33398 3.66106 5.33398 4.58869V11.3333" stroke="#2B7FFF" stroke-linecap="round" stroke-linejoin="round"/>
<path d="M5.33398 4.66602H10.6673M5.33398 7.33268H10.6673M5.33398 9.99935H10.6673" stroke="#2B7FFF" stroke-linecap="round" stroke-linejoin="round"/>
</svg>
