<svg width="16" height="17" viewBox="0 0 16 17" fill="none" xmlns="http://www.w3.org/2000/svg">
<path d="M7.9974 1.33398C8.69691 1.33398 9.24792 1.86234 9.59969 2.57526L10.7744 4.94409C10.81 5.0174 10.8944 5.12064 11.0214 5.21508C11.1482 5.30941 11.2724 5.36146 11.3541 5.37519L13.4805 5.7314C14.2486 5.86047 14.8924 6.23698 15.1014 6.89258C15.3102 7.54765 15.0042 8.22839 14.4519 8.78175L14.4514 8.78229L12.7994 10.4479C12.7339 10.5139 12.6606 10.6383 12.6146 10.8003C12.5689 10.9612 12.5649 11.1078 12.5856 11.2025L12.5859 11.2038L13.0585 13.2642C13.2545 14.1218 13.1896 14.9722 12.5847 15.4168C11.9778 15.8629 11.1485 15.6651 10.395 15.2164L8.4017 14.0267C8.318 13.9767 8.17424 13.9361 8.00073 13.9361C7.82849 13.9361 7.68171 13.9761 7.59256 14.028L7.5913 14.0287L5.60192 15.2161C4.84937 15.6664 4.02103 15.8607 3.41407 15.4141C2.80966 14.9695 2.74143 14.1207 2.93807 13.2638L3.4106 11.2038L3.41089 11.2025C3.43161 11.1078 3.42755 10.9612 3.38187 10.8003C3.33587 10.6383 3.26252 10.5139 3.19705 10.4479L1.5439 8.78108C0.995098 8.22774 0.690138 7.54759 0.897298 6.89349C1.10506 6.23748 1.74762 5.86052 2.51622 5.73136L4.64088 5.37545L4.64156 5.37533C4.71945 5.36182 4.8418 5.31036 4.96832 5.21577C5.09507 5.12101 5.17973 5.01755 5.21541 4.94409L5.21721 4.94043L6.39041 2.57463L6.39088 2.5737C6.74597 1.86137 7.29869 1.33398 7.9974 1.33398Z" fill="#FDC700"/>
</svg>
