<svg width="65" height="64" viewBox="0 0 65 64" fill="none" xmlns="http://www.w3.org/2000/svg">
<g clip-path="url(#clip0_624_21259)">
<path d="M64.332 32.385C64.332 27.8339 62.1276 24.2428 57.9143 24.2428C53.6831 24.2428 51.1231 27.8339 51.1231 32.3494C51.1231 37.7006 54.1454 40.4028 58.4831 40.4028C60.5987 40.4028 62.1987 39.9228 63.4076 39.2472V35.6917C62.1987 36.2961 60.812 36.6694 59.052 36.6694C57.3276 36.6694 55.7987 36.065 55.6031 33.9672H64.2965C64.2965 33.7361 64.332 32.8117 64.332 32.385ZM55.5498 30.6961C55.5498 28.6872 56.7765 27.8517 57.8965 27.8517C58.9809 27.8517 60.1365 28.6872 60.1365 30.6961H55.5498ZM44.2609 24.2428C42.5187 24.2428 41.3987 25.0606 40.7765 25.6294L40.5454 24.5272H36.6343V45.2561L41.0787 44.3139L41.0965 39.2828C41.7365 39.745 42.6787 40.4028 44.2431 40.4028C47.4254 40.4028 50.3231 37.8428 50.3231 32.2072C50.3054 27.0517 47.372 24.2428 44.2609 24.2428ZM43.1943 36.4917C42.1454 36.4917 41.5231 36.1183 41.0965 35.6561L41.0787 29.0606C41.5409 28.545 42.1809 28.1894 43.1943 28.1894C44.812 28.1894 45.932 30.0028 45.932 32.3317C45.932 34.7139 44.8298 36.4917 43.1943 36.4917ZM30.5187 23.1939L34.9809 22.2339V18.625L30.5187 19.5672V23.1939ZM30.5187 24.545H34.9809V40.1006H30.5187V24.545ZM25.7365 25.8606L25.452 24.545H21.612V40.1006H26.0565V29.5583C27.1054 28.1894 28.8831 28.4383 29.4343 28.6339V24.545C28.8654 24.3317 26.7854 23.9406 25.7365 25.8606ZM16.8476 20.6872L12.5098 21.6117L12.492 35.8517C12.492 38.4828 14.4654 40.4206 17.0965 40.4206C18.5543 40.4206 19.6209 40.1539 20.2076 39.8339V36.225C19.6387 36.4561 16.8298 37.2739 16.8298 34.6428V28.3317H20.2076V24.545H16.8298L16.8476 20.6872ZM4.82981 29.0606C4.82981 28.3672 5.3987 28.1006 6.34092 28.1006C7.69203 28.1006 9.3987 28.5094 10.7498 29.2383V25.0606C9.27425 24.4739 7.81648 24.2428 6.34092 24.2428C2.73203 24.2428 0.332031 26.1272 0.332031 29.2739C0.332031 34.1806 7.08759 33.3983 7.08759 35.5139C7.08759 36.3317 6.37648 36.5983 5.38092 36.5983C3.90536 36.5983 2.02092 35.9939 0.527587 35.1761V39.4072C2.18092 40.1183 3.85203 40.4206 5.38092 40.4206C9.0787 40.4206 11.6209 38.5894 11.6209 35.4072C11.6031 30.1094 4.82981 31.0517 4.82981 29.0606Z" fill="#635BFF"/>
</g>
<defs>
<clipPath id="clip0_624_21259">
<rect width="64" height="64" fill="white" transform="translate(0.332031)"/>
</clipPath>
</defs>
</svg>
