<svg width="40" height="40" viewBox="0 0 40 40" fill="none" xmlns="http://www.w3.org/2000/svg">
<path d="M40 20.2406C40 17.3962 38.6222 15.1517 35.9889 15.1517C33.3444 15.1517 31.7444 17.3962 31.7444 20.2184C31.7444 23.5628 33.6333 25.2517 36.3444 25.2517C37.6667 25.2517 38.6667 24.9517 39.4222 24.5295V22.3073C38.6667 22.6851 37.8 22.9184 36.7 22.9184C35.6222 22.9184 34.6667 22.5406 34.5444 21.2295H39.9778C39.9778 21.0851 40 20.5073 40 20.2406ZM34.5111 19.1851C34.5111 17.9295 35.2778 17.4073 35.9778 17.4073C36.6556 17.4073 37.3778 17.9295 37.3778 19.1851H34.5111ZM27.4556 15.1517C26.3667 15.1517 25.6667 15.6628 25.2778 16.0184L25.1333 15.3295H22.6889V28.2851L25.4667 27.6962L25.4778 24.5517C25.8778 24.8406 26.4667 25.2517 27.4444 25.2517C29.4333 25.2517 31.2444 23.6517 31.2444 20.1295C31.2333 16.9073 29.4 15.1517 27.4556 15.1517ZM26.7889 22.8073C26.1333 22.8073 25.7444 22.574 25.4778 22.2851L25.4667 18.1628C25.7556 17.8406 26.1556 17.6184 26.7889 17.6184C27.8 17.6184 28.5 18.7517 28.5 20.2073C28.5 21.6962 27.8111 22.8073 26.7889 22.8073ZM18.8667 14.4962L21.6556 13.8962V11.6406L18.8667 12.2295V14.4962ZM18.8667 15.3406H21.6556V25.0628H18.8667V15.3406ZM15.8778 16.1628L15.7 15.3406H13.3V25.0628H16.0778V18.474C16.7333 17.6184 17.8444 17.774 18.1889 17.8962V15.3406C17.8333 15.2073 16.5333 14.9628 15.8778 16.1628ZM10.3222 12.9295L7.61111 13.5073L7.6 22.4073C7.6 24.0517 8.83333 25.2628 10.4778 25.2628C11.3889 25.2628 12.0556 25.0962 12.4222 24.8962V22.6406C12.0667 22.7851 10.3111 23.2962 10.3111 21.6517V17.7073H12.4222V15.3406H10.3111L10.3222 12.9295ZM2.81111 18.1628C2.81111 17.7295 3.16667 17.5628 3.75556 17.5628C4.6 17.5628 5.66667 17.8184 6.51111 18.274V15.6628C5.58889 15.2962 4.67778 15.1517 3.75556 15.1517C1.5 15.1517 0 16.3295 0 18.2962C0 21.3628 4.22222 20.874 4.22222 22.1962C4.22222 22.7073 3.77778 22.874 3.15556 22.874C2.23333 22.874 1.05556 22.4962 0.122222 21.9851V24.6295C1.15556 25.074 2.2 25.2628 3.15556 25.2628C5.46667 25.2628 7.05556 24.1184 7.05556 22.1295C7.04444 18.8184 2.81111 19.4073 2.81111 18.1628Z" fill="#635BFF"/>
</svg>
