<svg width="64" height="64" viewBox="0 0 64 64" fill="none" xmlns="http://www.w3.org/2000/svg">
<rect width="64" height="64" rx="32" fill="white"/>
<g opacity="0.95">
<path d="M45.332 28.8119C45.332 27.8902 45.332 27.4294 45.4708 27.0186C45.874 25.8252 46.9368 25.362 48.0016 24.877C49.1987 24.3318 49.7972 24.0592 50.3903 24.0112C51.0635 23.9568 51.738 24.1018 52.3134 24.4248C53.0762 24.8529 53.6084 25.6665 54.153 26.328C56.6687 29.3836 57.9265 30.9114 58.3868 32.5961C58.7582 33.9558 58.7582 35.3776 58.3868 36.7372C57.7155 39.1945 55.5946 41.2543 54.0248 43.161C53.2218 44.1364 52.8203 44.6241 52.3134 44.9086C51.738 45.2315 51.0635 45.3766 50.3903 45.3221C49.7972 45.2742 49.1987 45.0016 48.0016 44.4563C46.9368 43.9713 45.874 43.5082 45.4708 42.3148C45.332 41.9039 45.332 41.4431 45.332 40.5215V28.8119Z" stroke="#A684FF" stroke-width="4"/>
<path d="M18.666 28.8123C18.666 27.6516 18.6334 26.6085 17.6951 25.7925C17.3538 25.4957 16.9014 25.2896 15.9964 24.8775C14.7994 24.3322 14.2008 24.0596 13.6078 24.0116C11.8285 23.8677 10.8711 25.0822 9.84502 26.3285C7.32935 29.384 6.07151 30.9118 5.61125 32.5966C5.23982 33.9562 5.23982 35.378 5.61125 36.7376C6.28256 39.1949 8.4034 41.2547 9.97325 43.1615C10.9628 44.3634 11.9081 45.46 13.6078 45.3226C14.2008 45.2746 14.7994 45.002 15.9964 44.4568C16.9014 44.0446 17.3538 43.8385 17.6951 43.5417C18.6334 42.7257 18.666 41.6826 18.666 40.5219V28.8123Z" stroke="#A684FF" stroke-width="4"/>
<path d="M13.332 24C13.332 15.1634 21.6894 8 31.9987 8C42.308 8 50.6654 15.1634 50.6654 24" stroke="#A684FF" stroke-width="4" stroke-linecap="square" stroke-linejoin="round"/>
<path d="M50.666 45.332V47.4654C50.666 52.1782 45.8904 55.9987 39.9993 55.9987H34.666" stroke="#A684FF" stroke-width="4" stroke-linecap="round" stroke-linejoin="round"/>
</g>
</svg>
