<svg width="40" height="40" viewBox="0 0 40 40" fill="none" xmlns="http://www.w3.org/2000/svg">
<path d="M12.1363 23.9502C12.2991 22.6024 12.8519 21.8478 13.8936 21.0742C15.3841 20.0265 17.2459 20.6191 17.2459 20.6191V17.1033C17.6985 17.0918 18.1513 17.1186 18.599 17.1835V21.708C18.599 21.708 16.7378 21.1154 15.2473 22.1636C14.2062 22.9366 13.6522 23.6918 13.49 25.0396C13.4849 25.7715 13.6223 26.7282 14.2548 27.5554C14.0984 27.4752 13.939 27.3838 13.7766 27.2813C12.3833 26.3457 12.1295 24.9421 12.1363 23.9502ZM26.2865 10.6026C25.2612 9.4791 24.8735 8.34473 24.7333 7.54785H26.0231C26.0231 7.54785 25.766 9.63728 27.6402 11.692L27.6662 11.7197C27.1611 11.4019 26.6978 11.0269 26.2865 10.6026ZM32.5 13.788V18.2215C32.5 18.2215 30.8541 18.157 29.636 17.8471C27.9353 17.4137 26.8421 16.7491 26.8421 16.7491C26.8421 16.7491 26.087 16.275 26.026 16.242V25.3972C26.026 25.9069 25.8864 27.18 25.4608 28.2417C24.9052 29.6307 24.0477 30.5425 23.89 30.7288C23.89 30.7288 22.8472 31.9612 21.0074 32.7912C19.3491 33.5398 17.8931 33.5209 17.4578 33.5398C17.4578 33.5398 14.9409 33.6395 12.6761 32.1676C12.1864 31.8432 11.7292 31.4758 11.3105 31.0701L11.3219 31.0782C13.5872 32.5501 16.1036 32.4504 16.1036 32.4504C16.5394 32.4315 17.9954 32.4504 19.6532 31.7017C21.4912 30.8718 22.5358 29.6394 22.5358 29.6394C22.6918 29.453 23.5532 28.5413 24.1065 27.1518C24.531 26.0906 24.6717 24.817 24.6717 24.3072V15.1531C24.7328 15.1867 25.4873 15.6607 25.4873 15.6607C25.4873 15.6607 26.581 16.326 28.2818 16.7588C29.5004 17.0687 31.1457 17.1331 31.1457 17.1331V13.6591C31.7087 13.7853 32.1885 13.8194 32.5 13.788Z" fill="#FD355A"/>
<path d="M31.1474 13.6591V17.1321C31.1474 17.1321 29.502 17.0676 28.2834 16.7577C26.5827 16.3243 25.489 15.6596 25.489 15.6596C25.489 15.6596 24.7344 15.1856 24.6734 15.152V24.3083C24.6734 24.818 24.5338 26.0916 24.1082 27.1529C23.5526 28.5424 22.6951 29.4541 22.5374 29.6405C22.5374 29.6405 21.494 30.8729 19.6548 31.7028C17.997 32.4515 16.541 32.4325 16.1053 32.4515C16.1053 32.4515 13.5889 32.5512 11.3235 31.0793L11.3122 31.0712C11.073 30.8396 10.8479 30.595 10.6379 30.3388C9.915 29.4574 9.47187 28.4151 9.36052 28.1177C9.36033 28.1164 9.36033 28.1152 9.36052 28.1139C9.18135 27.5971 8.80491 26.356 8.85635 25.1539C8.94735 23.0331 9.69343 21.7313 9.89069 21.4052C10.4131 20.5159 11.0926 19.7202 11.8989 19.0535C12.6104 18.4783 13.4169 18.0206 14.2853 17.6992C15.224 17.3219 16.2292 17.1197 17.247 17.1033V20.6191C17.247 20.6191 15.3852 20.0287 13.8953 21.0742C12.8536 21.8478 12.3008 22.6024 12.138 23.9502C12.1312 24.9421 12.385 26.3457 13.7771 27.2818C13.9395 27.3847 14.0989 27.4761 14.2553 27.5559C14.4985 27.8721 14.7945 28.1475 15.1314 28.3712C16.4913 29.232 17.6308 29.2922 19.0879 28.7331C20.0595 28.3593 20.7909 27.5169 21.13 26.5835C21.3431 26.0006 21.3403 25.4139 21.3403 24.8072V7.54785H24.7316C24.8718 8.34473 25.2595 9.4791 26.2848 10.6026C26.6961 11.0269 27.1594 11.4019 27.6645 11.7197C27.8137 11.8741 28.5768 12.6374 29.5563 13.106C30.0628 13.3482 30.5967 13.5338 31.1474 13.6591Z" fill="black"/>
<path d="M8.00977 27.0391V27.0418L8.09392 27.2698C8.08425 27.2433 8.05298 27.1626 8.00977 27.0391Z" fill="#33F3ED"/>
<path d="M14.2842 17.6997C13.4158 18.021 12.6094 18.4787 11.8978 19.054C11.0913 19.7221 10.412 20.5195 9.89019 21.4105C9.69293 21.7355 8.94684 23.0384 8.85584 25.1592C8.80441 26.3613 9.18084 27.6024 9.36001 28.1192C9.35982 28.1205 9.35982 28.1217 9.36001 28.123C9.47306 28.4177 9.91449 29.46 10.6374 30.3441C10.8474 30.6004 11.0725 30.8449 11.3117 31.0765C10.5454 30.5685 9.86194 29.9544 9.28371 29.2541C8.56701 28.3803 8.12501 27.3489 8.00971 27.0444C8.00957 27.0423 8.00957 27.0401 8.00971 27.0379V27.0341C7.82997 26.5179 7.45241 25.2762 7.50497 24.0725C7.59597 21.9517 8.34206 20.6499 8.53932 20.3238C9.06094 19.4327 9.74028 18.6353 10.547 17.9673C11.2583 17.3918 12.0648 16.9341 12.9333 16.613C13.475 16.3976 14.0393 16.2386 14.6165 16.139C15.4864 15.9934 16.3748 15.9808 17.2487 16.1016V17.1038C16.23 17.1197 15.2238 17.322 14.2842 17.6997Z" fill="#33F3ED"/>
<path d="M24.7325 7.54796H21.3412V24.8079C21.3412 25.4146 21.3412 25.9997 21.1309 26.5842C20.7884 27.517 20.0598 28.3594 19.0888 28.7332C17.6311 29.2944 16.4916 29.2321 15.1323 28.3713C14.7948 28.1486 14.498 27.8741 14.2539 27.5587C15.412 28.1508 16.4486 28.1406 17.7328 27.6465C18.7033 27.2727 19.433 26.4303 19.7744 25.4969C19.988 24.914 19.9852 24.3273 19.9852 23.7212V6.45801H24.668C24.668 6.45801 24.6155 6.88705 24.7325 7.54796ZM31.1454 12.6987V13.6592C30.5957 13.5337 30.0628 13.3481 29.5572 13.1061C28.5776 12.6375 27.8146 11.8742 27.6654 11.7198C27.8385 11.8287 28.0182 11.9279 28.2035 12.0166C29.3944 12.5865 30.5672 12.7566 31.1454 12.6987Z" fill="#33F3ED"/>
</svg>
