<svg width="40" height="40" viewBox="0 0 40 40" fill="none" xmlns="http://www.w3.org/2000/svg">
<path fill-rule="evenodd" clip-rule="evenodd" d="M38.0267 7.11682L28.1764 7.11426C28.1752 7.11426 28.1739 7.11426 28.1739 7.11426C28.1662 7.11426 28.1588 7.11562 28.1514 7.11562C26.7981 7.15741 25.1128 8.2515 24.8058 9.60059L20.1475 30.3785C19.8405 31.7402 20.6756 32.8482 22.019 32.8686H32.3672C33.6901 32.8026 34.9756 31.7212 35.2773 30.3874L39.9358 9.60929C40.2477 8.23375 39.3925 7.11682 38.0267 7.11682Z" fill="#01798A"/>
<path fill-rule="evenodd" clip-rule="evenodd" d="M20.1476 30.3781L24.8059 9.60022C25.1128 8.25112 26.7982 7.15704 28.1514 7.11525L24.235 7.11269L17.1787 7.11133C15.8217 7.1393 14.1144 8.24106 13.8075 9.60022L9.14784 30.3781C8.83975 31.7398 9.67605 32.8479 11.0186 32.8682H22.0191C20.6757 32.8479 19.8406 31.7398 20.1476 30.3781Z" fill="#024381"/>
<path fill-rule="evenodd" clip-rule="evenodd" d="M9.14778 30.3786L13.8075 9.60065C14.1143 8.24149 15.8216 7.13974 17.1786 7.11176L8.13911 7.10938C6.77454 7.10938 5.02501 8.22376 4.71317 9.60065L0.0534745 30.3786C0.0251178 30.5054 0.00938601 30.6297 0 30.7513V31.1367C0.0912172 32.1293 0.843232 32.8521 1.92422 32.8687H11.0185C9.67599 32.8483 8.83969 31.7403 9.14778 30.3786Z" fill="#DD0228"/>
<path fill-rule="evenodd" clip-rule="evenodd" d="M17.3701 22.2522H17.5412C17.6984 22.2522 17.8041 22.199 17.8537 22.0937L18.2982 21.4231H19.4887L19.2404 21.8642H20.6678L20.4867 22.54H18.7883C18.5927 22.8367 18.3519 22.9761 18.0624 22.9596H17.1777L17.3701 22.2522ZM17.1746 23.2208H20.3017L20.1024 23.955H18.8448L18.6529 24.6636H19.8767L19.6773 25.3977H18.4536L18.1693 26.4448C18.0989 26.6198 18.1915 26.6985 18.4454 26.6807H19.4428L19.258 27.3628H17.3432C16.9802 27.3628 16.8557 27.1535 16.9696 26.734L17.333 25.3977H16.5508L16.7495 24.6636H17.5319L17.7236 23.955H16.9758L17.1746 23.2208ZM22.1658 21.418L22.1166 21.8478C22.1166 21.8478 22.7064 21.4014 23.2422 21.4014H25.2218L24.4648 24.1639C24.402 24.4798 24.1328 24.6368 23.6573 24.6368H21.4135L20.8879 26.5767C20.8576 26.6806 20.9004 26.7339 21.0136 26.7339H21.4551L21.2928 27.336H20.1704C19.7396 27.336 19.5604 27.2055 19.6315 26.9431L21.1167 21.418H22.1658ZM23.8422 22.1989H22.0753L21.8639 22.9444C21.8639 22.9444 22.1582 22.7302 22.6499 22.7226C23.1403 22.7148 23.7001 22.7226 23.7001 22.7226L23.8422 22.1989ZM23.2021 23.9282C23.3327 23.9461 23.4058 23.894 23.4146 23.771L23.5227 23.3781H21.7531L21.6047 23.9282H23.2021ZM22.0084 24.8207H23.0285L23.0095 25.2657H23.2811C23.4183 25.2657 23.4864 25.2214 23.4864 25.134L23.5667 24.8461H24.4145L24.3013 25.2657C24.2055 25.6156 23.9517 25.7982 23.5392 25.8161H22.9958L22.9933 26.5767C22.9833 26.6985 23.0926 26.7606 23.3177 26.7606H23.8284L23.6635 27.3628H22.4386C22.0953 27.3792 21.9269 27.2143 21.9304 26.8645L22.0084 24.8207Z" fill="white"/>
<path fill-rule="evenodd" clip-rule="evenodd" d="M9.64654 17.7376C9.50818 18.421 9.18747 18.9458 8.69 19.3186C8.19704 19.685 7.56122 19.8687 6.78278 19.8687C6.0502 19.8687 5.51312 19.6811 5.1704 19.3046C4.9327 19.037 4.81445 18.6973 4.81445 18.2865C4.81445 18.1167 4.83462 17.9341 4.87488 17.7376L5.70429 13.7061H6.95695L6.13883 17.692C6.11365 17.8023 6.1036 17.905 6.10492 17.9975C6.1036 18.2017 6.15389 18.369 6.25576 18.4995C6.40416 18.6936 6.64502 18.7898 6.9802 18.7898C7.36564 18.7898 7.68324 18.6948 7.92973 18.5033C8.17628 18.3132 8.33724 18.0432 8.40954 17.692L9.23023 13.7061H10.4766L9.64654 17.7376Z" fill="white"/>
<path fill-rule="evenodd" clip-rule="evenodd" d="M14.9072 16.1517H15.8882L15.1198 19.7498H14.1406L14.9072 16.1517ZM15.216 14.8408H16.2058L16.0209 15.7142H15.0312L15.216 14.8408Z" fill="white"/>
<path fill-rule="evenodd" clip-rule="evenodd" d="M16.7565 19.4756C16.4999 19.2284 16.3704 18.895 16.3691 18.4716C16.3691 18.3992 16.3735 18.3169 16.383 18.2268C16.3925 18.1355 16.4044 18.0468 16.4214 17.9644C16.5377 17.38 16.7855 16.916 17.1672 16.5736C17.5482 16.2301 18.008 16.0576 18.5463 16.0576C18.9871 16.0576 19.3367 16.1819 19.5927 16.4304C19.8485 16.6802 19.9768 17.0173 19.9768 17.446C19.9768 17.5194 19.9712 17.6043 19.9617 17.6956C19.9504 17.7882 19.9367 17.8769 19.9208 17.9644C19.8071 18.54 19.56 18.9989 19.1783 19.335C18.7965 19.6735 18.3381 19.842 17.8036 19.842C17.3609 19.842 17.0125 19.7203 16.7565 19.4756ZM18.6261 18.7631C18.7991 18.5742 18.9229 18.2877 18.9984 17.9061C19.0097 17.8466 19.0197 17.7844 19.026 17.7223C19.0322 17.6614 19.0348 17.6044 19.0348 17.5524C19.0348 17.3305 18.9788 17.1581 18.8662 17.0364C18.7544 16.9134 18.5953 16.8526 18.3897 16.8526C18.118 16.8526 17.8966 16.9488 17.7232 17.1416C17.5482 17.3344 17.4243 17.6259 17.3463 18.0139C17.3357 18.0734 17.3269 18.1331 17.3188 18.1914C17.3125 18.2509 17.3106 18.3067 17.3118 18.3574C17.3118 18.578 17.3678 18.748 17.4804 18.8683C17.5922 18.9888 17.7506 19.0484 17.9589 19.0484C18.2318 19.0484 18.4532 18.9533 18.6261 18.7631Z" fill="white"/>
<path fill-rule="evenodd" clip-rule="evenodd" d="M26.3428 22.2828L26.5794 21.4435H27.7754L27.7238 21.7515C27.7238 21.7515 28.335 21.4435 28.7751 21.4435C29.2154 21.4435 30.2541 21.4435 30.2541 21.4435L30.019 22.2828H29.7863L28.6707 26.2409H28.9034L28.6821 27.0269H28.4494L28.3526 27.368H27.1943L27.2909 27.0269H25.0059L25.2285 26.2409H25.4575L26.5741 22.2828H26.3428ZM27.6332 22.2828L27.3288 23.3541C27.3288 23.3541 27.8497 23.1526 28.2986 23.0955C28.3978 22.7215 28.5274 22.2828 28.5274 22.2828L27.6332 22.2828ZM27.1879 23.8561L26.8825 24.9781C26.8825 24.9781 27.4596 24.6916 27.8558 24.6675C27.9702 24.2339 28.0847 23.8561 28.0847 23.8561L27.1879 23.8561ZM27.4118 26.2409L27.6407 25.427H26.7479L26.5178 26.2409H27.4118ZM30.3045 21.3916H31.4289L31.4766 21.8098C31.4692 21.9163 31.532 21.9672 31.6653 21.9672H31.864L31.6629 22.6758H30.8365C30.5209 22.6923 30.3586 22.5706 30.3436 22.3081L30.3045 21.3916ZM29.975 22.9117H33.6172L33.4035 23.6724H32.2438L32.045 24.3797H33.2035L32.9884 25.1392H31.6981L31.4062 25.5843H32.0377L32.1836 26.4755C32.201 26.5642 32.279 26.6073 32.4124 26.6073H32.6085L32.4024 27.3413H31.7081C31.3484 27.3591 31.1624 27.2374 31.1472 26.975L30.9798 26.1611L30.4052 27.027C30.2693 27.2716 30.0605 27.3858 29.7789 27.368H28.7186L28.9249 26.6338H29.2557C29.3916 26.6338 29.5046 26.573 29.6065 26.4501L30.5058 25.1392H29.3462L29.5611 24.3797H30.8189L31.0189 23.6724H29.7599L29.975 22.9117Z" fill="white"/>
<path fill-rule="evenodd" clip-rule="evenodd" d="M10.8016 16.1499H11.6864L11.5852 16.6697L11.7122 16.5214C11.999 16.212 12.3473 16.0586 12.7586 16.0586C13.1308 16.0586 13.3993 16.1677 13.5679 16.387C13.7339 16.6063 13.7791 16.9093 13.7006 17.2986L13.2132 19.7505H12.3039L12.7441 17.528C12.7894 17.2986 12.7769 17.1274 12.7069 17.017C12.6379 16.9068 12.5057 16.8523 12.3152 16.8523C12.0813 16.8523 11.8845 16.9257 11.7241 17.0716C11.5631 17.2187 11.4569 17.4228 11.4047 17.6827L10.9991 19.7505H10.0879L10.8016 16.1499Z" fill="white"/>
<path fill-rule="evenodd" clip-rule="evenodd" d="M20.948 16.1499H21.8335L21.7329 16.6697L21.8585 16.5214C22.1455 16.212 22.4951 16.0586 22.9051 16.0586C23.2774 16.0586 23.5464 16.1677 23.7136 16.387C23.8786 16.6063 23.9263 16.9093 23.8458 17.2986L23.3603 19.7505H22.4497L22.89 17.528C22.9352 17.2986 22.9227 17.1274 22.8535 17.017C22.7817 16.9068 22.6521 16.8523 22.4624 16.8523C22.2284 16.8523 22.0323 16.9257 21.87 17.0716C21.7089 17.2187 21.6021 17.4228 21.5519 17.6827L21.1444 19.7505H20.2344L20.948 16.1499" fill="white"/>
<path fill-rule="evenodd" clip-rule="evenodd" d="M25.3241 13.9189H27.8948C28.3891 13.9189 28.7713 14.0319 29.0341 14.2536C29.2957 14.4781 29.4267 14.8001 29.4267 15.2198V15.2324C29.4267 15.3122 29.4215 15.4023 29.414 15.4999C29.4013 15.5962 29.3849 15.6938 29.3638 15.7953C29.2506 16.3506 28.9876 16.7969 28.5815 17.1354C28.1738 17.4726 27.6911 17.6425 27.1352 17.6425H25.7566L25.3304 19.7509H24.1367L25.3241 13.9189ZM25.9666 16.6283H27.11C27.408 16.6283 27.6444 16.5585 27.8168 16.4204C27.9879 16.2809 28.1011 16.0679 28.1638 15.7789C28.1738 15.7255 28.1801 15.6774 28.1877 15.6331C28.1916 15.5913 28.1965 15.5493 28.1965 15.5089C28.1965 15.3021 28.1237 15.1525 27.9777 15.0587C27.8318 14.9635 27.6031 14.918 27.286 14.918H26.315L25.9666 16.6283Z" fill="white"/>
<path fill-rule="evenodd" clip-rule="evenodd" d="M34.7686 20.4468C34.3912 21.2556 34.0317 21.7271 33.8205 21.9464C33.609 22.1633 33.1903 22.6679 32.1816 22.6298L32.2684 22.0125C33.1172 21.7488 33.5763 20.5607 33.8379 20.0347L33.5261 16.1602L34.1826 16.1514H34.7334L34.7926 18.5818L35.825 16.1514H36.8702L34.7686 20.4468Z" fill="white"/>
<path fill-rule="evenodd" clip-rule="evenodd" d="M31.8456 16.4446L31.4304 16.7324C30.9965 16.3901 30.6004 16.1784 29.8359 16.5358C28.7943 17.0227 27.9241 20.7564 30.7916 19.5266L30.955 19.7218L32.0832 19.751L32.824 16.3583L31.8456 16.4446ZM31.2041 18.2994C31.0229 18.8382 30.6181 19.1944 30.3012 19.093C29.9842 18.9941 29.871 18.4743 30.0546 17.9342C30.2357 17.3941 30.6432 17.0392 30.9576 17.1406C31.2745 17.2395 31.3889 17.7592 31.2041 18.2994Z" fill="white"/>
</svg>
