<svg width="65" height="64" viewBox="0 0 65 64" fill="none" xmlns="http://www.w3.org/2000/svg">
<path fill-rule="evenodd" clip-rule="evenodd" d="M61.5092 11.3889L45.7486 11.3848C45.7468 11.3848 45.7446 11.3848 45.7446 11.3848C45.7324 11.3848 45.7205 11.387 45.7086 11.387C43.5434 11.4538 40.8468 13.2043 40.3557 15.3629L32.9024 48.6076C32.4113 50.7863 33.7474 52.5591 35.8968 52.5917H52.4539C54.5706 52.4862 56.6274 50.7558 57.1101 48.6218L64.5637 15.3768C65.0627 13.176 63.6944 11.3889 61.5092 11.3889Z" fill="#01798A"/>
<path fill-rule="evenodd" clip-rule="evenodd" d="M32.9029 48.6058L40.3562 15.3611C40.8473 13.2026 43.544 11.4521 45.7091 11.3852L39.4427 11.3811L28.1527 11.3789C25.9815 11.4237 23.2498 13.1865 22.7588 15.3611L15.3033 48.6058C14.8104 50.7845 16.1485 52.5574 18.2966 52.59H35.8973C33.7479 52.5574 32.4118 50.7845 32.9029 48.6058Z" fill="#024381"/>
<path fill-rule="evenodd" clip-rule="evenodd" d="M15.3025 48.6057L22.758 15.361C23.2489 13.1864 25.9807 11.4236 28.1518 11.3788L13.6886 11.375C11.5053 11.375 8.70604 13.158 8.20708 15.361L0.751575 48.6057C0.706204 48.8086 0.681033 49.0074 0.666016 49.202V49.8188C0.811963 51.4069 2.01519 52.5634 3.74477 52.5899H18.2957C16.1476 52.5573 14.8095 50.7844 15.3025 48.6057Z" fill="#DD0228"/>
<path fill-rule="evenodd" clip-rule="evenodd" d="M28.4574 35.6015H28.7311C28.9826 35.6015 29.1519 35.5165 29.2312 35.348L29.9424 34.275H31.8471L31.4499 34.9807H33.7337L33.444 36.0621H30.7265C30.4135 36.5367 30.0283 36.7599 29.565 36.7334H28.1496L28.4574 35.6015ZM28.1447 37.1513H33.148L32.8291 38.326H30.8169L30.5099 39.4598H32.4679L32.149 40.6343H30.1909L29.7361 42.3097C29.6235 42.5897 29.7716 42.7157 30.178 42.6871H31.7737L31.4781 43.7786H28.4143C27.8336 43.7786 27.6344 43.4437 27.8165 42.7724L28.3981 40.6343H27.1465L27.4644 39.4598H28.7162L29.023 38.326H27.8265L28.1447 37.1513ZM36.1305 34.2669L36.0517 34.9545C36.0517 34.9545 36.9955 34.2402 37.8527 34.2402H41.0202L39.8088 38.6603C39.7084 39.1657 39.2776 39.4169 38.5169 39.4169H34.9268L34.0859 42.5207C34.0374 42.687 34.1059 42.7723 34.287 42.7723H34.9934L34.7337 43.7357H32.9379C32.2486 43.7357 31.9619 43.5268 32.0756 43.107L34.4519 34.2669H36.1305ZM38.8128 35.5164H35.9857L35.6475 36.709C35.6475 36.709 36.1183 36.3664 36.9051 36.3541C37.6897 36.3417 38.5854 36.3541 38.5854 36.3541L38.8128 35.5164ZM37.7885 38.2832C37.9976 38.3118 38.1145 38.2284 38.1286 38.0316L38.3016 37.4029H35.4702L35.2327 38.2832H37.7885ZM35.8788 39.7112H37.5108L37.4805 40.4231H37.915C38.1346 40.4231 38.2434 40.3522 38.2434 40.2124L38.372 39.7518H39.7285L39.5473 40.4231C39.3941 40.983 38.988 41.2752 38.3279 41.3037H37.4585L37.4545 42.5207C37.4385 42.7156 37.6134 42.8149 37.9735 42.8149H38.7906L38.5269 43.7785H36.567C36.0176 43.8048 35.7483 43.541 35.7539 42.9813L35.8788 39.7112Z" fill="white"/>
<path fill-rule="evenodd" clip-rule="evenodd" d="M16.1005 28.3782C15.8791 29.4716 15.366 30.3114 14.57 30.9078C13.7813 31.494 12.764 31.788 11.5185 31.788C10.3463 31.788 9.48701 31.4878 8.93865 30.8854C8.55834 30.4573 8.36914 29.9137 8.36914 29.2565C8.36914 28.9847 8.40141 28.6926 8.46582 28.3782L9.79287 21.9277H11.7971L10.4881 28.3052C10.4479 28.4817 10.4318 28.646 10.4339 28.7941C10.4318 29.1208 10.5122 29.3884 10.6752 29.5973C10.9127 29.9077 11.298 30.0618 11.8343 30.0618C12.451 30.0618 12.9592 29.9098 13.3536 29.6034C13.7481 29.2991 14.0056 28.8671 14.1213 28.3052L15.4344 21.9277H17.4285L16.1005 28.3782Z" fill="white"/>
<path fill-rule="evenodd" clip-rule="evenodd" d="M24.5175 25.8416H26.0872L24.8576 31.5984H23.291L24.5175 25.8416ZM25.0116 23.7441H26.5953L26.2995 25.1415H24.7159L25.0116 23.7441Z" fill="white"/>
<path fill-rule="evenodd" clip-rule="evenodd" d="M27.4773 31.1602C27.0667 30.7647 26.8594 30.2312 26.8574 29.5537C26.8574 29.438 26.8644 29.3062 26.8796 29.1621C26.8948 29.016 26.9139 28.874 26.941 28.7423C27.1271 27.8072 27.5236 27.0648 28.1342 26.517C28.744 25.9673 29.4796 25.6914 30.3408 25.6914C31.0461 25.6914 31.6055 25.8902 32.0151 26.2878C32.4245 26.6875 32.6297 27.2269 32.6297 27.9128C32.6297 28.0302 32.6207 28.1662 32.6056 28.3122C32.5874 28.4603 32.5655 28.6023 32.5401 28.7423C32.3581 29.6632 31.9628 30.3975 31.352 30.9352C30.7412 31.4767 30.0078 31.7463 29.1525 31.7463C28.4443 31.7463 27.8868 31.5517 27.4773 31.1602ZM30.4686 30.0202C30.7453 29.718 30.9435 29.2595 31.0642 28.649C31.0824 28.5537 31.0983 28.4543 31.1083 28.3549C31.1184 28.2575 31.1224 28.1662 31.1224 28.083C31.1224 27.728 31.0328 27.4522 30.8528 27.2574C30.6738 27.0606 30.4193 26.9634 30.0903 26.9634C29.6555 26.9634 29.3014 27.1173 29.0239 27.4258C28.7439 27.7342 28.5458 28.2007 28.4209 28.8214C28.4039 28.9167 28.3898 29.0121 28.3768 29.1054C28.3668 29.2007 28.3638 29.29 28.3657 29.3711C28.3657 29.7241 28.4553 29.9959 28.6354 30.1886C28.8143 30.3813 29.0677 30.4766 29.401 30.4766C29.8377 30.4766 30.1919 30.3245 30.4686 30.0202Z" fill="white"/>
<path fill-rule="evenodd" clip-rule="evenodd" d="M42.8149 35.6505L43.1934 34.3077H45.107L45.0245 34.8005C45.0245 34.8005 46.0024 34.3077 46.7066 34.3077C47.4111 34.3077 49.0729 34.3077 49.0729 34.3077L48.6968 35.6505H48.3246L46.5395 41.9835H46.9118L46.5577 43.2412H46.1854L46.0306 43.7868H44.1773L44.3319 43.2412H40.6758L41.0321 41.9835H41.3984L43.185 35.6505H42.8149ZM44.8796 35.6506L44.3925 37.3645C44.3925 37.3645 45.2259 37.0422 45.9442 36.9509C46.1028 36.3524 46.3102 35.6506 46.3102 35.6506L44.8796 35.6506ZM44.167 38.1679L43.6783 39.9631C43.6783 39.9631 44.6018 39.5046 45.2357 39.466C45.4187 38.7722 45.602 38.1679 45.602 38.1679L44.167 38.1679ZM44.5252 41.9835L44.8915 40.6812H43.4631L43.0949 41.9835H44.5252ZM49.1536 34.2246H50.9526L51.029 34.8938C51.0171 35.0641 51.1175 35.1455 51.3309 35.1455H51.6487L51.3271 36.2793H50.0048C49.4998 36.3056 49.2402 36.1111 49.2161 35.691L49.1536 34.2246ZM48.6264 36.6567H54.4539L54.112 37.8739H52.2565L51.9384 39.0055H53.7919L53.4478 40.2207H51.3834L50.9164 40.9329H51.9268L52.1602 42.3588C52.1881 42.5008 52.3129 42.5698 52.5262 42.5698H52.84L52.5102 43.7441H51.3994C50.8238 43.7726 50.5262 43.5779 50.5019 43.158L50.2341 41.8558L49.3146 43.2412C49.0972 43.6327 48.7631 43.8153 48.3126 43.7868H46.6161L46.9462 42.6122H47.4755C47.6929 42.6122 47.8737 42.5148 48.0367 42.3181L49.4757 40.2207H47.6203L47.9642 39.0055H49.9766L50.2966 37.8739H48.2823L48.6264 36.6567Z" fill="white"/>
<path fill-rule="evenodd" clip-rule="evenodd" d="M17.9486 25.8394H19.3642L19.2023 26.6711L19.4055 26.4338C19.8643 25.9389 20.4217 25.6934 21.0797 25.6934C21.6754 25.6934 22.105 25.8679 22.3746 26.2187C22.6402 26.5697 22.7126 27.0546 22.587 27.6773L21.8071 31.6003H20.3523L21.0566 28.0445C21.1291 27.6773 21.109 27.4034 20.9971 27.2269C20.8866 27.0504 20.6752 26.9633 20.3704 26.9633C19.9961 26.9633 19.6812 27.0808 19.4246 27.3142C19.167 27.5495 18.997 27.8761 18.9135 28.2919L18.2645 31.6003H16.8066L17.9486 25.8394Z" fill="white"/>
<path fill-rule="evenodd" clip-rule="evenodd" d="M34.1827 25.8394H35.5995L35.4387 26.6711L35.6396 26.4338C36.0988 25.9389 36.6582 25.6934 37.3142 25.6934C37.9098 25.6934 38.3403 25.8679 38.6078 26.2187C38.8718 26.5697 38.9481 27.0546 38.8192 27.6773L38.0425 31.6003H36.5856L37.2901 28.0445C37.3624 27.6773 37.3423 27.4034 37.2316 27.2269C37.1168 27.0504 36.9094 26.9633 36.6059 26.9633C36.2315 26.9633 35.9177 27.0808 35.658 27.3142C35.4003 27.5495 35.2294 27.8761 35.149 28.2919L34.4971 31.6003H33.041L34.1827 25.8394" fill="white"/>
<path fill-rule="evenodd" clip-rule="evenodd" d="M41.185 22.2695H45.2981C46.0889 22.2695 46.7006 22.4502 47.121 22.805C47.5396 23.1642 47.7491 23.6795 47.7491 24.3508V24.371C47.7491 24.4988 47.7408 24.6429 47.7288 24.799C47.7085 24.9532 47.6823 25.1093 47.6484 25.2717C47.4673 26.1602 47.0466 26.8743 46.3968 27.4159C45.7446 27.9554 44.9721 28.2273 44.0827 28.2273H41.877L41.195 31.6006H39.2852L41.185 22.2695ZM42.213 26.6045H44.0424C44.5192 26.6045 44.8974 26.4928 45.1733 26.2718C45.447 26.0486 45.6281 25.7079 45.7286 25.2455C45.7445 25.16 45.7546 25.0831 45.7667 25.0121C45.773 24.9452 45.7808 24.8781 45.7808 24.8134C45.7808 24.4826 45.6644 24.2433 45.4307 24.0932C45.1974 23.9409 44.8313 23.868 44.3239 23.868H42.7704L42.213 26.6045Z" fill="white"/>
<path fill-rule="evenodd" clip-rule="evenodd" d="M56.2954 32.7125C55.6916 34.0065 55.1163 34.761 54.7784 35.112C54.44 35.459 53.7702 36.2664 52.1562 36.2054L52.2951 35.2176C53.6532 34.7957 54.3877 32.8948 54.8063 32.0531L54.3073 25.854L55.3578 25.8398H56.2391L56.3338 29.7285L57.9856 25.8398H59.658L56.2954 32.7125Z" fill="white"/>
<path fill-rule="evenodd" clip-rule="evenodd" d="M51.619 26.3105L50.9546 26.7711C50.2604 26.2234 49.6266 25.8846 48.4034 26.4566C46.737 27.2355 45.3445 33.2095 49.9325 31.2418L50.1941 31.5542L51.9991 31.6009L53.1844 26.1725L51.619 26.3105ZM50.5926 29.2782C50.3026 30.1404 49.655 30.7103 49.1479 30.548C48.6408 30.3898 48.4597 29.558 48.7534 28.694C49.0431 27.8298 49.6951 27.2619 50.1981 27.4241C50.7052 27.5824 50.8882 28.414 50.5926 29.2782Z" fill="white"/>
</svg>
