<svg width="25" height="24" viewBox="0 0 25 24" fill="none" xmlns="http://www.w3.org/2000/svg">
<path d="M5.75345 4.19584L4.52558 4.90813C3.53739 5.48137 3.04329 5.768 2.77164 6.24483C2.5 6.72165 2.5 7.30233 2.5 8.46368V16.6283C2.5 18.1542 2.5 18.9172 2.84226 19.3418C3.07001 19.6244 3.38916 19.8143 3.742 19.8773C4.27226 19.9719 4.92148 19.5953 6.21987 18.8421C7.10156 18.3306 7.95011 17.7994 9.00487 17.9435C9.48466 18.009 9.94231 18.2366 10.8576 18.6917L14.6715 20.588C15.4964 20.9982 15.504 21 16.4214 21H18.5C20.3856 21 21.3284 21 21.9142 20.4013C22.5 19.8026 22.5 18.8389 22.5 16.9117V10.1715C22.5 8.24423 22.5 7.2806 21.9142 6.68188C21.3284 6.08316 20.3856 6.08316 18.5 6.08316H16.4214C15.504 6.08316 15.4964 6.08139 14.6715 5.6712L11.3399 4.01463C9.94884 3.32297 9.25332 2.97714 8.51238 3.00117C7.77143 3.02521 7.09877 3.41542 5.75345 4.19584Z" stroke="white" stroke-width="1.5" stroke-linecap="round" stroke-linejoin="round"/>
<path d="M8.5 3L8.5 17.5" stroke="white" stroke-width="1.5" stroke-linecap="round" stroke-linejoin="round"/>
<path d="M15.5 6.5L15.5 20.5" stroke="white" stroke-width="1.5" stroke-linecap="round" stroke-linejoin="round"/>
</svg>
