<svg width="64" height="64" viewBox="0 0 64 64" fill="none" xmlns="http://www.w3.org/2000/svg">
<path d="M31.6887 21.9901L27.4129 41.98H22.2411L26.5173 21.9901H31.6887ZM53.446 34.8978L56.1679 27.3912L57.7343 34.8978H53.446ZM59.218 41.98H64L59.8223 21.9901H55.4112C54.4171 21.9901 53.579 22.5665 53.2081 23.4553L45.4484 41.98H50.8796L51.9578 38.9946H58.5917L59.218 41.98ZM45.7177 35.454C45.7402 30.1783 38.4246 29.8861 38.4736 27.5288C38.4894 26.8125 39.1728 26.0496 40.6664 25.8544C41.4069 25.7591 43.4503 25.6818 45.7667 26.7492L46.6727 22.5085C45.4286 22.0584 43.8276 21.625 41.8354 21.625C36.7229 21.625 33.1265 24.3406 33.0977 28.2324C33.0649 31.1103 35.6668 32.715 37.623 33.6735C39.6399 34.6532 40.3157 35.2813 40.3058 36.1567C40.2919 37.4979 38.6976 38.0918 37.213 38.1143C34.6115 38.1547 33.1036 37.4111 31.9018 36.8509L30.963 41.2332C32.1733 41.7871 34.4034 42.2691 36.7125 42.2938C42.1478 42.2938 45.7015 39.6101 45.7177 35.454ZM24.2989 21.9901L15.9196 41.98H10.4538L6.33 26.0266C6.08002 25.0456 5.86196 24.685 5.10168 24.2705C3.85807 23.5952 1.80517 22.9635 0 22.5705L0.122294 21.9901H8.92197C10.0428 21.9901 11.0513 22.736 11.308 24.0272L13.4864 35.5956L18.8659 21.9901H24.2989Z" fill="#1434CB"/>
</svg>
