<svg width="33" height="32" viewBox="0 0 33 32" fill="none" xmlns="http://www.w3.org/2000/svg">
<path d="M23.3333 16.0026C23.3333 19.6845 20.3486 22.6693 16.6667 22.6693C12.9848 22.6693 10 19.6845 10 16.0026C10 12.3207 12.9848 9.33594 16.6667 9.33594" stroke="#51A2FF" stroke-width="1.5" stroke-linecap="round"/>
<path d="M19.332 2.93859C18.4704 2.76369 17.5786 2.67188 16.6654 2.67188C9.30157 2.67188 3.33203 8.64141 3.33203 16.0052C3.33203 23.369 9.30157 29.3385 16.6654 29.3385C24.0292 29.3385 29.9987 23.369 29.9987 16.0052C29.9987 15.092 29.9069 14.2002 29.732 13.3385" stroke="#51A2FF" stroke-width="1.5" stroke-linecap="round"/>
<path d="M16.1357 15.4749C15.8428 15.7678 15.8428 16.2426 16.1357 16.5355C16.4286 16.8284 16.9035 16.8284 17.1963 16.5355L16.666 16.0052L16.1357 15.4749ZM26.9205 5.7507L26.1948 5.94004C26.2634 6.20273 26.4685 6.40786 26.7312 6.4764L26.9205 5.7507ZM26.232 3.11197L25.5063 3.30132V3.30132L26.232 3.11197ZM25.0634 2.92529L25.5937 3.45562V3.45562L25.0634 2.92529ZM23.5309 4.4578L23.0006 3.92747V3.92747L23.5309 4.4578ZM22.3702 8.20693L21.6445 8.39628L22.3702 8.20693ZM29.5593 6.43918L29.3699 7.16488L29.5593 6.43918ZM29.7459 7.60782L29.2156 7.07749L29.7459 7.60782ZM28.2134 9.14034L28.7438 9.67067L28.2134 9.14034ZM24.4643 10.301L24.2749 11.0267L24.4643 10.301ZM22.8035 9.8677L22.2732 9.33737L16.1357 15.4749L16.666 16.0052L17.1963 16.5355L23.3339 10.398L22.8035 9.8677ZM26.9205 5.7507L27.6462 5.56135L26.9577 2.92262L26.232 3.11197L25.5063 3.30132L26.1948 5.94004L26.9205 5.7507ZM25.0634 2.92529L24.5331 2.39496L23.0006 3.92747L23.5309 4.4578L24.0612 4.98813L25.5937 3.45562L25.0634 2.92529ZM22.3702 8.20693L21.6445 8.39628L22.0778 10.057L22.8035 9.8677L23.5292 9.67836L23.0959 8.01758L22.3702 8.20693ZM26.9205 5.7507L26.7312 6.4764L29.3699 7.16488L29.5593 6.43918L29.7486 5.71347L27.1099 5.02499L26.9205 5.7507ZM29.7459 7.60782L29.2156 7.07749L27.6831 8.61001L28.2134 9.14034L28.7438 9.67067L30.2763 8.13815L29.7459 7.60782ZM24.4643 10.301L24.6536 9.57532L22.9929 9.142L22.8035 9.8677L22.6142 10.5934L24.2749 11.0267L24.4643 10.301ZM28.2134 9.14034L27.6831 8.61001C26.8022 9.4909 25.6162 9.82646 24.6536 9.57532L24.4643 10.301L24.2749 11.0267C25.8286 11.4321 27.5454 10.869 28.7438 9.67067L28.2134 9.14034ZM29.5593 6.43918L29.3699 7.16488C29.3495 7.15957 29.3159 7.14287 29.2873 7.10985C29.2609 7.07941 29.2524 7.05104 29.2502 7.0371C29.2459 7.01017 29.2603 7.03277 29.2156 7.07749L29.7459 7.60782L30.2763 8.13815C30.6396 7.77481 30.8076 7.27751 30.7314 6.80049C30.6529 6.30923 30.3097 5.85988 29.7486 5.71347L29.5593 6.43918ZM23.5309 4.4578L23.0006 3.92747C21.8022 5.12579 21.2391 6.84262 21.6445 8.39628L22.3702 8.20693L23.0959 8.01758C22.8448 7.05502 23.1803 5.86902 24.0612 4.98813L23.5309 4.4578ZM26.232 3.11197L26.9577 2.92262C26.8113 2.3615 26.362 2.01828 25.8707 1.9398C25.3937 1.8636 24.8964 2.03161 24.5331 2.39496L25.0634 2.92529L25.5937 3.45562C25.6385 3.41089 25.6611 3.42533 25.6341 3.42102C25.6202 3.4188 25.5918 3.41031 25.5614 3.38394C25.5284 3.35533 25.5117 3.32168 25.5063 3.30132L26.232 3.11197Z" fill="#51A2FF"/>
</svg>
